<?xml version="1.0" encoding="utf-8"?>
<svg xmlns="http://www.w3.org/2000/svg" xmlns:xlink="http://www.w3.org/1999/xlink" width="600" height="400" viewBox="0 0 2400 1600">
<defs>
  <clipPath id="clip820">
    <rect x="0" y="0" width="2400" height="1600"/>
  </clipPath>
</defs>
<path clip-path="url(#clip820)" d="
M0 1600 L2400 1600 L2400 0 L0 0  Z
  " fill="#ffffff" fill-rule="evenodd" fill-opacity="1"/>
<defs>
  <clipPath id="clip821">
    <rect x="480" y="0" width="1681" height="1600"/>
  </clipPath>
</defs>
<path clip-path="url(#clip820)" d="
M156.112 1486.45 L2352.76 1486.45 L2352.76 47.2441 L156.112 47.2441  Z
  " fill="#ffffff" fill-rule="evenodd" fill-opacity="1"/>
<defs>
  <clipPath id="clip822">
    <rect x="156" y="47" width="2198" height="1440"/>
  </clipPath>
</defs>
<polyline clip-path="url(#clip822)" style="stroke:#000000; stroke-linecap:butt; stroke-linejoin:round; stroke-width:2; stroke-opacity:0.1; fill:none" points="
  165.145,1486.45 165.145,47.2441 
  "/>
<polyline clip-path="url(#clip822)" style="stroke:#000000; stroke-linecap:butt; stroke-linejoin:round; stroke-width:2; stroke-opacity:0.1; fill:none" points="
  696.506,1486.45 696.506,47.2441 
  "/>
<polyline clip-path="url(#clip822)" style="stroke:#000000; stroke-linecap:butt; stroke-linejoin:round; stroke-width:2; stroke-opacity:0.1; fill:none" points="
  1227.87,1486.45 1227.87,47.2441 
  "/>
<polyline clip-path="url(#clip822)" style="stroke:#000000; stroke-linecap:butt; stroke-linejoin:round; stroke-width:2; stroke-opacity:0.1; fill:none" points="
  1759.23,1486.45 1759.23,47.2441 
  "/>
<polyline clip-path="url(#clip822)" style="stroke:#000000; stroke-linecap:butt; stroke-linejoin:round; stroke-width:2; stroke-opacity:0.1; fill:none" points="
  2290.59,1486.45 2290.59,47.2441 
  "/>
<polyline clip-path="url(#clip820)" style="stroke:#000000; stroke-linecap:butt; stroke-linejoin:round; stroke-width:4; stroke-opacity:1; fill:none" points="
  156.112,1486.45 2352.76,1486.45 
  "/>
<polyline clip-path="url(#clip820)" style="stroke:#000000; stroke-linecap:butt; stroke-linejoin:round; stroke-width:4; stroke-opacity:1; fill:none" points="
  165.145,1486.45 165.145,1467.55 
  "/>
<polyline clip-path="url(#clip820)" style="stroke:#000000; stroke-linecap:butt; stroke-linejoin:round; stroke-width:4; stroke-opacity:1; fill:none" points="
  696.506,1486.45 696.506,1467.55 
  "/>
<polyline clip-path="url(#clip820)" style="stroke:#000000; stroke-linecap:butt; stroke-linejoin:round; stroke-width:4; stroke-opacity:1; fill:none" points="
  1227.87,1486.45 1227.87,1467.55 
  "/>
<polyline clip-path="url(#clip820)" style="stroke:#000000; stroke-linecap:butt; stroke-linejoin:round; stroke-width:4; stroke-opacity:1; fill:none" points="
  1759.23,1486.45 1759.23,1467.55 
  "/>
<polyline clip-path="url(#clip820)" style="stroke:#000000; stroke-linecap:butt; stroke-linejoin:round; stroke-width:4; stroke-opacity:1; fill:none" points="
  2290.59,1486.45 2290.59,1467.55 
  "/>
<path clip-path="url(#clip820)" d="M142.53 1517.37 Q138.919 1517.37 137.09 1520.93 Q135.284 1524.47 135.284 1531.6 Q135.284 1538.71 137.09 1542.27 Q138.919 1545.82 142.53 1545.82 Q146.164 1545.82 147.969 1542.27 Q149.798 1538.71 149.798 1531.6 Q149.798 1524.47 147.969 1520.93 Q146.164 1517.37 142.53 1517.37 M142.53 1513.66 Q148.34 1513.66 151.395 1518.27 Q154.474 1522.85 154.474 1531.6 Q154.474 1540.33 151.395 1544.94 Q148.34 1549.52 142.53 1549.52 Q136.719 1549.52 133.641 1544.94 Q130.585 1540.33 130.585 1531.6 Q130.585 1522.85 133.641 1518.27 Q136.719 1513.66 142.53 1513.66 Z" fill="#000000" fill-rule="evenodd" fill-opacity="1" /><path clip-path="url(#clip820)" d="M162.692 1542.97 L167.576 1542.97 L167.576 1548.85 L162.692 1548.85 L162.692 1542.97 Z" fill="#000000" fill-rule="evenodd" fill-opacity="1" /><path clip-path="url(#clip820)" d="M187.761 1517.37 Q184.15 1517.37 182.321 1520.93 Q180.516 1524.47 180.516 1531.6 Q180.516 1538.71 182.321 1542.27 Q184.15 1545.82 187.761 1545.82 Q191.395 1545.82 193.201 1542.27 Q195.029 1538.71 195.029 1531.6 Q195.029 1524.47 193.201 1520.93 Q191.395 1517.37 187.761 1517.37 M187.761 1513.66 Q193.571 1513.66 196.627 1518.27 Q199.705 1522.85 199.705 1531.6 Q199.705 1540.33 196.627 1544.94 Q193.571 1549.52 187.761 1549.52 Q181.951 1549.52 178.872 1544.94 Q175.816 1540.33 175.816 1531.6 Q175.816 1522.85 178.872 1518.27 Q181.951 1513.66 187.761 1513.66 Z" fill="#000000" fill-rule="evenodd" fill-opacity="1" /><path clip-path="url(#clip820)" d="M674.388 1517.37 Q670.777 1517.37 668.948 1520.93 Q667.142 1524.47 667.142 1531.6 Q667.142 1538.71 668.948 1542.27 Q670.777 1545.82 674.388 1545.82 Q678.022 1545.82 679.827 1542.27 Q681.656 1538.71 681.656 1531.6 Q681.656 1524.47 679.827 1520.93 Q678.022 1517.37 674.388 1517.37 M674.388 1513.66 Q680.198 1513.66 683.253 1518.27 Q686.332 1522.85 686.332 1531.6 Q686.332 1540.33 683.253 1544.94 Q680.198 1549.52 674.388 1549.52 Q668.578 1549.52 665.499 1544.94 Q662.443 1540.33 662.443 1531.6 Q662.443 1522.85 665.499 1518.27 Q668.578 1513.66 674.388 1513.66 Z" fill="#000000" fill-rule="evenodd" fill-opacity="1" /><path clip-path="url(#clip820)" d="M694.55 1542.97 L699.434 1542.97 L699.434 1548.85 L694.55 1548.85 L694.55 1542.97 Z" fill="#000000" fill-rule="evenodd" fill-opacity="1" /><path clip-path="url(#clip820)" d="M709.665 1514.29 L728.022 1514.29 L728.022 1518.22 L713.948 1518.22 L713.948 1526.7 Q714.966 1526.35 715.985 1526.19 Q717.003 1526 718.022 1526 Q723.809 1526 727.188 1529.17 Q730.568 1532.34 730.568 1537.76 Q730.568 1543.34 727.096 1546.44 Q723.624 1549.52 717.304 1549.52 Q715.128 1549.52 712.86 1549.15 Q710.614 1548.78 708.207 1548.04 L708.207 1543.34 Q710.29 1544.47 712.512 1545.03 Q714.735 1545.58 717.212 1545.58 Q721.216 1545.58 723.554 1543.48 Q725.892 1541.37 725.892 1537.76 Q725.892 1534.15 723.554 1532.04 Q721.216 1529.94 717.212 1529.94 Q715.337 1529.94 713.462 1530.35 Q711.61 1530.77 709.665 1531.65 L709.665 1514.29 Z" fill="#000000" fill-rule="evenodd" fill-opacity="1" /><path clip-path="url(#clip820)" d="M1195.02 1544.91 L1202.66 1544.91 L1202.66 1518.55 L1194.35 1520.21 L1194.35 1515.95 L1202.61 1514.29 L1207.29 1514.29 L1207.29 1544.91 L1214.93 1544.91 L1214.93 1548.85 L1195.02 1548.85 L1195.02 1544.91 Z" fill="#000000" fill-rule="evenodd" fill-opacity="1" /><path clip-path="url(#clip820)" d="M1224.37 1542.97 L1229.25 1542.97 L1229.25 1548.85 L1224.37 1548.85 L1224.37 1542.97 Z" fill="#000000" fill-rule="evenodd" fill-opacity="1" /><path clip-path="url(#clip820)" d="M1249.44 1517.37 Q1245.83 1517.37 1244 1520.93 Q1242.19 1524.47 1242.19 1531.6 Q1242.19 1538.71 1244 1542.27 Q1245.83 1545.82 1249.44 1545.82 Q1253.07 1545.82 1254.88 1542.27 Q1256.71 1538.71 1256.71 1531.6 Q1256.71 1524.47 1254.88 1520.93 Q1253.07 1517.37 1249.44 1517.37 M1249.44 1513.66 Q1255.25 1513.66 1258.31 1518.27 Q1261.38 1522.85 1261.38 1531.6 Q1261.38 1540.33 1258.31 1544.94 Q1255.25 1549.52 1249.44 1549.52 Q1243.63 1549.52 1240.55 1544.94 Q1237.5 1540.33 1237.5 1531.6 Q1237.5 1522.85 1240.55 1518.27 Q1243.63 1513.66 1249.44 1513.66 Z" fill="#000000" fill-rule="evenodd" fill-opacity="1" /><path clip-path="url(#clip820)" d="M1726.88 1544.91 L1734.52 1544.91 L1734.52 1518.55 L1726.21 1520.21 L1726.21 1515.95 L1734.47 1514.29 L1739.15 1514.29 L1739.15 1544.91 L1746.78 1544.91 L1746.78 1548.85 L1726.88 1548.85 L1726.88 1544.91 Z" fill="#000000" fill-rule="evenodd" fill-opacity="1" /><path clip-path="url(#clip820)" d="M1756.23 1542.97 L1761.11 1542.97 L1761.11 1548.85 L1756.23 1548.85 L1756.23 1542.97 Z" fill="#000000" fill-rule="evenodd" fill-opacity="1" /><path clip-path="url(#clip820)" d="M1771.34 1514.29 L1789.7 1514.29 L1789.7 1518.22 L1775.63 1518.22 L1775.63 1526.7 Q1776.65 1526.35 1777.66 1526.19 Q1778.68 1526 1779.7 1526 Q1785.49 1526 1788.87 1529.17 Q1792.25 1532.34 1792.25 1537.76 Q1792.25 1543.34 1788.77 1546.44 Q1785.3 1549.52 1778.98 1549.52 Q1776.81 1549.52 1774.54 1549.15 Q1772.29 1548.78 1769.89 1548.04 L1769.89 1543.34 Q1771.97 1544.47 1774.19 1545.03 Q1776.41 1545.58 1778.89 1545.58 Q1782.9 1545.58 1785.23 1543.48 Q1787.57 1541.37 1787.57 1537.76 Q1787.57 1534.15 1785.23 1532.04 Q1782.9 1529.94 1778.89 1529.94 Q1777.02 1529.94 1775.14 1530.35 Q1773.29 1530.77 1771.34 1531.65 L1771.34 1514.29 Z" fill="#000000" fill-rule="evenodd" fill-opacity="1" /><path clip-path="url(#clip820)" d="M2261.83 1544.91 L2278.14 1544.91 L2278.14 1548.85 L2256.2 1548.85 L2256.2 1544.91 Q2258.86 1542.16 2263.45 1537.53 Q2268.05 1532.88 2269.23 1531.53 Q2271.48 1529.01 2272.36 1527.27 Q2273.26 1525.51 2273.26 1523.82 Q2273.26 1521.07 2271.32 1519.33 Q2269.39 1517.6 2266.29 1517.6 Q2264.09 1517.6 2261.64 1518.36 Q2259.21 1519.13 2256.43 1520.68 L2256.43 1515.95 Q2259.26 1514.82 2261.71 1514.24 Q2264.16 1513.66 2266.2 1513.66 Q2271.57 1513.66 2274.77 1516.35 Q2277.96 1519.03 2277.96 1523.52 Q2277.96 1525.65 2277.15 1527.57 Q2276.36 1529.47 2274.26 1532.07 Q2273.68 1532.74 2270.58 1535.95 Q2267.47 1539.15 2261.83 1544.91 Z" fill="#000000" fill-rule="evenodd" fill-opacity="1" /><path clip-path="url(#clip820)" d="M2287.96 1542.97 L2292.84 1542.97 L2292.84 1548.85 L2287.96 1548.85 L2287.96 1542.97 Z" fill="#000000" fill-rule="evenodd" fill-opacity="1" /><path clip-path="url(#clip820)" d="M2313.03 1517.37 Q2309.42 1517.37 2307.59 1520.93 Q2305.78 1524.47 2305.78 1531.6 Q2305.78 1538.71 2307.59 1542.27 Q2309.42 1545.82 2313.03 1545.82 Q2316.66 1545.82 2318.47 1542.27 Q2320.3 1538.71 2320.3 1531.6 Q2320.3 1524.47 2318.47 1520.93 Q2316.66 1517.37 2313.03 1517.37 M2313.03 1513.66 Q2318.84 1513.66 2321.89 1518.27 Q2324.97 1522.85 2324.97 1531.6 Q2324.97 1540.33 2321.89 1544.94 Q2318.84 1549.52 2313.03 1549.52 Q2307.22 1549.52 2304.14 1544.94 Q2301.08 1540.33 2301.08 1531.6 Q2301.08 1522.85 2304.14 1518.27 Q2307.22 1513.66 2313.03 1513.66 Z" fill="#000000" fill-rule="evenodd" fill-opacity="1" /><polyline clip-path="url(#clip822)" style="stroke:#000000; stroke-linecap:butt; stroke-linejoin:round; stroke-width:2; stroke-opacity:0.1; fill:none" points="
  156.112,1486.45 2352.76,1486.45 
  "/>
<polyline clip-path="url(#clip822)" style="stroke:#000000; stroke-linecap:butt; stroke-linejoin:round; stroke-width:2; stroke-opacity:0.1; fill:none" points="
  156.112,1006.71 2352.76,1006.71 
  "/>
<polyline clip-path="url(#clip822)" style="stroke:#000000; stroke-linecap:butt; stroke-linejoin:round; stroke-width:2; stroke-opacity:0.1; fill:none" points="
  156.112,526.979 2352.76,526.979 
  "/>
<polyline clip-path="url(#clip822)" style="stroke:#000000; stroke-linecap:butt; stroke-linejoin:round; stroke-width:2; stroke-opacity:0.1; fill:none" points="
  156.112,47.2441 2352.76,47.2441 
  "/>
<polyline clip-path="url(#clip820)" style="stroke:#000000; stroke-linecap:butt; stroke-linejoin:round; stroke-width:4; stroke-opacity:1; fill:none" points="
  156.112,1486.45 156.112,47.2441 
  "/>
<polyline clip-path="url(#clip820)" style="stroke:#000000; stroke-linecap:butt; stroke-linejoin:round; stroke-width:4; stroke-opacity:1; fill:none" points="
  156.112,1486.45 175.01,1486.45 
  "/>
<polyline clip-path="url(#clip820)" style="stroke:#000000; stroke-linecap:butt; stroke-linejoin:round; stroke-width:4; stroke-opacity:1; fill:none" points="
  156.112,1006.71 175.01,1006.71 
  "/>
<polyline clip-path="url(#clip820)" style="stroke:#000000; stroke-linecap:butt; stroke-linejoin:round; stroke-width:4; stroke-opacity:1; fill:none" points="
  156.112,526.979 175.01,526.979 
  "/>
<polyline clip-path="url(#clip820)" style="stroke:#000000; stroke-linecap:butt; stroke-linejoin:round; stroke-width:4; stroke-opacity:1; fill:none" points="
  156.112,47.2441 175.01,47.2441 
  "/>
<path clip-path="url(#clip820)" d="M62.9365 1472.25 Q59.3254 1472.25 57.4967 1475.81 Q55.6912 1479.35 55.6912 1486.48 Q55.6912 1493.59 57.4967 1497.15 Q59.3254 1500.7 62.9365 1500.7 Q66.5707 1500.7 68.3763 1497.15 Q70.205 1493.59 70.205 1486.48 Q70.205 1479.35 68.3763 1475.81 Q66.5707 1472.25 62.9365 1472.25 M62.9365 1468.54 Q68.7467 1468.54 71.8022 1473.15 Q74.8809 1477.73 74.8809 1486.48 Q74.8809 1495.21 71.8022 1499.82 Q68.7467 1504.4 62.9365 1504.4 Q57.1264 1504.4 54.0477 1499.82 Q50.9921 1495.21 50.9921 1486.48 Q50.9921 1477.73 54.0477 1473.15 Q57.1264 1468.54 62.9365 1468.54 Z" fill="#000000" fill-rule="evenodd" fill-opacity="1" /><path clip-path="url(#clip820)" d="M83.0984 1497.85 L87.9827 1497.85 L87.9827 1503.73 L83.0984 1503.73 L83.0984 1497.85 Z" fill="#000000" fill-rule="evenodd" fill-opacity="1" /><path clip-path="url(#clip820)" d="M108.168 1472.25 Q104.557 1472.25 102.728 1475.81 Q100.922 1479.35 100.922 1486.48 Q100.922 1493.59 102.728 1497.15 Q104.557 1500.7 108.168 1500.7 Q111.802 1500.7 113.608 1497.15 Q115.436 1493.59 115.436 1486.48 Q115.436 1479.35 113.608 1475.81 Q111.802 1472.25 108.168 1472.25 M108.168 1468.54 Q113.978 1468.54 117.033 1473.15 Q120.112 1477.73 120.112 1486.48 Q120.112 1495.21 117.033 1499.82 Q113.978 1504.4 108.168 1504.4 Q102.358 1504.4 99.2789 1499.82 Q96.2234 1495.21 96.2234 1486.48 Q96.2234 1477.73 99.2789 1473.15 Q102.358 1468.54 108.168 1468.54 Z" fill="#000000" fill-rule="evenodd" fill-opacity="1" /><path clip-path="url(#clip820)" d="M63.9319 992.512 Q60.3208 992.512 58.4921 996.077 Q56.6865 999.618 56.6865 1006.75 Q56.6865 1013.85 58.4921 1017.42 Q60.3208 1020.96 63.9319 1020.96 Q67.5661 1020.96 69.3717 1017.42 Q71.2004 1013.85 71.2004 1006.75 Q71.2004 999.618 69.3717 996.077 Q67.5661 992.512 63.9319 992.512 M63.9319 988.808 Q69.742 988.808 72.7976 993.415 Q75.8763 997.998 75.8763 1006.75 Q75.8763 1015.47 72.7976 1020.08 Q69.742 1024.66 63.9319 1024.66 Q58.1217 1024.66 55.043 1020.08 Q51.9875 1015.47 51.9875 1006.75 Q51.9875 997.998 55.043 993.415 Q58.1217 988.808 63.9319 988.808 Z" fill="#000000" fill-rule="evenodd" fill-opacity="1" /><path clip-path="url(#clip820)" d="M84.0938 1018.11 L88.978 1018.11 L88.978 1023.99 L84.0938 1023.99 L84.0938 1018.11 Z" fill="#000000" fill-rule="evenodd" fill-opacity="1" /><path clip-path="url(#clip820)" d="M99.2095 989.433 L117.566 989.433 L117.566 993.368 L103.492 993.368 L103.492 1001.84 Q104.51 1001.49 105.529 1001.33 Q106.547 1001.15 107.566 1001.15 Q113.353 1001.15 116.733 1004.32 Q120.112 1007.49 120.112 1012.91 Q120.112 1018.48 116.64 1021.59 Q113.168 1024.66 106.848 1024.66 Q104.672 1024.66 102.404 1024.29 Q100.159 1023.92 97.7511 1023.18 L97.7511 1018.48 Q99.8345 1019.62 102.057 1020.17 Q104.279 1020.73 106.756 1020.73 Q110.76 1020.73 113.098 1018.62 Q115.436 1016.52 115.436 1012.91 Q115.436 1009.29 113.098 1007.19 Q110.76 1005.08 106.756 1005.08 Q104.881 1005.08 103.006 1005.5 Q101.154 1005.91 99.2095 1006.79 L99.2095 989.433 Z" fill="#000000" fill-rule="evenodd" fill-opacity="1" /><path clip-path="url(#clip820)" d="M53.7467 540.324 L61.3856 540.324 L61.3856 513.958 L53.0754 515.625 L53.0754 511.365 L61.3393 509.699 L66.0152 509.699 L66.0152 540.324 L73.654 540.324 L73.654 544.259 L53.7467 544.259 L53.7467 540.324 Z" fill="#000000" fill-rule="evenodd" fill-opacity="1" /><path clip-path="url(#clip820)" d="M83.0984 538.379 L87.9827 538.379 L87.9827 544.259 L83.0984 544.259 L83.0984 538.379 Z" fill="#000000" fill-rule="evenodd" fill-opacity="1" /><path clip-path="url(#clip820)" d="M108.168 512.777 Q104.557 512.777 102.728 516.342 Q100.922 519.884 100.922 527.013 Q100.922 534.12 102.728 537.685 Q104.557 541.226 108.168 541.226 Q111.802 541.226 113.608 537.685 Q115.436 534.12 115.436 527.013 Q115.436 519.884 113.608 516.342 Q111.802 512.777 108.168 512.777 M108.168 509.074 Q113.978 509.074 117.033 513.68 Q120.112 518.263 120.112 527.013 Q120.112 535.74 117.033 540.347 Q113.978 544.93 108.168 544.93 Q102.358 544.93 99.2789 540.347 Q96.2234 535.74 96.2234 527.013 Q96.2234 518.263 99.2789 513.68 Q102.358 509.074 108.168 509.074 Z" fill="#000000" fill-rule="evenodd" fill-opacity="1" /><path clip-path="url(#clip820)" d="M54.7421 60.5889 L62.381 60.5889 L62.381 34.2233 L54.0708 35.89 L54.0708 31.6308 L62.3347 29.9641 L67.0106 29.9641 L67.0106 60.5889 L74.6494 60.5889 L74.6494 64.5241 L54.7421 64.5241 L54.7421 60.5889 Z" fill="#000000" fill-rule="evenodd" fill-opacity="1" /><path clip-path="url(#clip820)" d="M84.0938 58.6445 L88.978 58.6445 L88.978 64.5241 L84.0938 64.5241 L84.0938 58.6445 Z" fill="#000000" fill-rule="evenodd" fill-opacity="1" /><path clip-path="url(#clip820)" d="M99.2095 29.9641 L117.566 29.9641 L117.566 33.8993 L103.492 33.8993 L103.492 42.3714 Q104.51 42.0242 105.529 41.8622 Q106.547 41.677 107.566 41.677 Q113.353 41.677 116.733 44.8483 Q120.112 48.0196 120.112 53.4362 Q120.112 59.0149 116.64 62.1167 Q113.168 65.1954 106.848 65.1954 Q104.672 65.1954 102.404 64.825 Q100.159 64.4547 97.7511 63.7139 L97.7511 59.0149 Q99.8345 60.1491 102.057 60.7047 Q104.279 61.2602 106.756 61.2602 Q110.76 61.2602 113.098 59.1538 Q115.436 57.0473 115.436 53.4362 Q115.436 49.8251 113.098 47.7186 Q110.76 45.6122 106.756 45.6122 Q104.881 45.6122 103.006 46.0288 Q101.154 46.4455 99.2095 47.3251 L99.2095 29.9641 Z" fill="#000000" fill-rule="evenodd" fill-opacity="1" /><polyline clip-path="url(#clip822)" style="stroke:#009af9; stroke-linecap:butt; stroke-linejoin:round; stroke-width:4; stroke-opacity:1; fill:none" points="
  271.417,526.979 282.045,526.979 292.672,526.979 303.299,526.979 313.926,526.979 324.553,526.979 335.181,526.979 345.808,526.979 356.435,526.979 367.062,526.979 
  377.689,526.979 388.317,526.979 398.944,526.979 409.571,526.979 420.198,526.979 430.825,526.979 441.453,526.979 452.08,526.979 462.707,526.979 473.334,526.979 
  483.961,526.979 494.589,526.979 505.216,526.979 515.843,526.979 526.47,526.979 537.098,526.979 547.725,526.979 558.352,526.979 568.979,526.979 579.606,526.979 
  590.234,526.979 600.861,526.979 611.488,526.979 622.115,526.979 632.742,526.979 643.37,526.979 653.997,526.979 664.624,526.979 675.251,526.979 685.878,526.979 
  696.506,526.979 707.133,526.979 717.76,526.979 728.387,526.979 739.014,526.979 749.642,526.979 760.269,526.979 770.896,526.979 781.523,526.979 792.15,526.979 
  802.778,526.979 813.405,526.979 824.032,526.979 834.659,526.979 845.287,526.979 855.914,526.979 866.541,526.979 877.168,526.979 887.795,526.979 898.423,526.979 
  909.05,526.979 919.677,526.979 930.304,526.979 940.931,526.979 951.559,526.979 962.186,526.979 972.813,526.979 983.44,526.979 994.067,526.979 1004.69,526.979 
  1015.32,526.979 1025.95,526.979 1036.58,526.979 1047.2,526.979 1057.83,526.979 1068.46,526.979 1079.09,526.979 1089.71,526.979 1100.34,526.979 1110.97,526.979 
  1121.59,526.979 1132.22,526.979 1142.85,526.979 1153.48,526.979 1164.1,526.979 1174.73,526.979 1185.36,526.979 1195.98,526.979 1206.61,526.979 1217.24,526.979 
  1227.87,526.979 1238.49,526.979 1249.12,526.979 1259.75,526.979 1270.37,526.979 1281,526.979 1291.63,526.979 1302.26,526.979 1312.88,526.979 1323.51,526.979 
  1334.14,526.979 1344.77,526.979 1355.39,526.979 1366.02,526.979 1376.65,526.979 1387.27,526.979 1397.9,526.979 1408.53,526.979 1419.16,526.979 1429.78,526.979 
  1440.41,526.979 1451.04,526.979 1461.66,526.979 1472.29,526.979 1482.92,526.979 1493.55,526.979 1504.17,526.979 1514.8,526.979 1525.43,526.979 1536.06,526.979 
  1546.68,526.979 1557.31,902.064 1567.94,1010.35 1578.56,1079.5 1589.19,1129.84 1599.82,1168.94 1610.45,1200.53 1621.07,1226.74 1631.7,1248.94 1642.33,1268.03 
  1652.95,1284.64 1663.58,1299.23 1674.21,1312.17 1684.84,1323.72 1695.46,1334.08 1706.09,1343.45 1716.72,1351.94 1727.34,1359.67 1737.97,1366.75 1748.6,1373.23 
  1759.23,1379.21 1769.85,1384.72 1780.48,1389.82 1791.11,1394.54 1801.74,1398.94 1812.36,1403.03 1822.99,1406.85 1833.62,1410.43 1844.24,1413.77 1854.87,1416.91 
  1865.5,1419.85 1876.13,1422.62 1886.75,1425.23 1897.38,1427.69 1908.01,1430.02 1918.63,1432.21 1929.26,1434.29 1939.89,1436.26 1950.52,1438.12 1961.14,1439.89 
  1971.77,1441.57 1982.4,1443.17 1993.02,1444.69 2003.65,1446.14 2014.28,1447.52 2024.91,1448.83 2035.53,1450.09 2046.16,1451.29 2056.79,1452.43 2067.42,1453.53 
  2078.04,1454.57 2088.67,1455.57 2099.3,1456.53 2109.92,1457.45 2120.55,1458.34 2131.18,1459.18 2141.81,1459.99 2152.43,1460.77 2163.06,1461.52 2173.69,1462.24 
  2184.31,1462.93 2194.94,1463.6 2205.57,1464.24 2216.2,1464.86 2226.82,1465.45 2237.45,1466.02 2248.08,1466.58 2258.71,1467.11 2269.33,1467.62 2279.96,1468.12 
  2290.59,1468.6 
  "/>
<polyline clip-path="url(#clip822)" style="stroke:#e26f46; stroke-linecap:butt; stroke-linejoin:round; stroke-width:4; stroke-opacity:1; fill:none" points="
  218.281,571.64 239.214,579.485 260.146,586.225 281.078,592.213 302.011,597.646 322.943,602.649 343.876,607.304 364.808,611.671 385.74,615.794 406.673,619.709 
  427.605,623.441 448.537,627.012 469.47,630.439 490.402,633.738 511.335,636.92 532.267,639.996 553.199,642.975 574.132,645.865 595.064,648.673 615.996,651.404 
  636.929,654.064 657.861,656.657 678.794,659.188 699.726,661.661 720.658,664.079 741.591,666.445 762.523,668.762 783.456,671.032 804.388,673.258 825.32,675.443 
  846.253,677.587 867.185,679.693 888.117,681.763 909.05,683.798 929.982,685.799 950.915,687.769 971.847,689.707 992.779,691.617 1013.71,693.498 1034.64,695.351 
  1055.58,697.179 1076.51,698.981 1097.44,700.758 1118.37,702.512 1139.31,704.242 1160.24,705.951 1181.17,707.638 1202.1,709.304 1223.04,710.951 1243.97,712.577 
  1264.9,714.185 1285.83,715.774 1306.76,717.345 1327.7,718.899 1348.63,720.436 1369.56,721.957 1390.49,723.461 1411.43,724.95 1432.36,726.423 1453.29,727.882 
  1474.22,729.326 1495.16,730.756 1516.09,732.173 1537.02,733.575 1557.95,734.965 1578.89,736.342 1599.82,737.706 1620.75,739.058 1641.68,740.398 1662.62,741.726 
  1683.55,743.042 1704.48,744.348 1725.41,745.642 1746.34,746.925 1767.28,748.198 1788.21,749.461 1809.14,750.713 1830.07,751.955 1851.01,753.188 1871.94,754.411 
  1892.87,755.624 1913.8,756.828 1934.74,758.023 1955.67,759.209 1976.6,760.387 1997.53,761.556 2018.47,762.716 2039.4,763.868 2060.33,765.012 2081.26,766.148 
  2102.2,767.276 2123.13,768.396 2144.06,769.508 2164.99,770.613 2185.92,771.711 2206.86,772.801 2227.79,773.884 2248.72,774.96 2269.65,776.03 2290.59,777.092 
  
  "/>
<polyline clip-path="url(#clip822)" style="stroke:#3da44d; stroke-linecap:butt; stroke-linejoin:round; stroke-width:4; stroke-opacity:1; fill:none" points="
  218.281,537.812 239.214,537.833 260.146,537.854 281.078,537.877 302.011,537.904 322.943,537.935 343.876,537.97 364.808,538.01 385.74,538.055 406.673,538.105 
  427.605,538.16 448.537,538.22 469.47,538.286 490.402,538.359 511.335,538.437 532.267,538.522 553.199,538.615 574.132,538.714 595.064,538.822 615.996,538.939 
  636.929,539.065 657.861,539.201 678.794,539.348 699.726,539.507 720.658,539.678 741.591,539.865 762.523,540.067 783.456,540.286 804.388,540.525 825.32,540.786 
  846.253,541.072 867.185,541.387 888.117,541.734 909.05,542.119 929.982,542.549 950.915,543.031 971.847,543.576 992.779,544.197 1013.71,544.913 1034.64,545.748 
  1055.58,546.739 1076.51,547.935 1097.44,549.418 1118.37,551.316 1139.31,553.863 1160.24,557.524 1181.17,563.427 1202.1,575.432 1223.04,630.625 1243.97,1009.3 
  1264.9,1152 1285.83,1229.04 1306.76,1279.16 1327.7,1314.77 1348.63,1341.43 1369.56,1362.12 1390.49,1378.61 1411.43,1392.02 1432.36,1403.1 1453.29,1412.38 
  1474.22,1420.25 1495.16,1426.97 1516.09,1432.76 1537.02,1437.79 1557.95,1442.19 1578.89,1446.06 1599.82,1449.47 1620.75,1452.5 1641.68,1455.2 1662.62,1457.62 
  1683.55,1459.79 1704.48,1461.74 1725.41,1463.51 1746.34,1465.11 1767.28,1466.57 1788.21,1467.89 1809.14,1469.11 1830.07,1470.21 1851.01,1471.23 1871.94,1472.16 
  1892.87,1473.02 1913.8,1473.82 1934.74,1474.55 1955.67,1475.23 1976.6,1475.85 1997.53,1476.44 2018.47,1476.98 2039.4,1477.48 2060.33,1477.95 2081.26,1478.39 
  2102.2,1478.8 2123.13,1479.18 2144.06,1479.54 2164.99,1479.88 2185.92,1480.19 2206.86,1480.49 2227.79,1480.76 2248.72,1481.02 2269.65,1481.27 2290.59,1481.5 
  
  "/>
<path clip-path="url(#clip820)" d="
M907.043 302.578 L2279.53 302.578 L2279.53 95.2176 L907.043 95.2176  Z
  " fill="#ffffff" fill-rule="evenodd" fill-opacity="1"/>
<polyline clip-path="url(#clip820)" style="stroke:#000000; stroke-linecap:butt; stroke-linejoin:round; stroke-width:4; stroke-opacity:1; fill:none" points="
  907.043,302.578 2279.53,302.578 2279.53,95.2176 907.043,95.2176 907.043,302.578 
  "/>
<polyline clip-path="url(#clip820)" style="stroke:#009af9; stroke-linecap:butt; stroke-linejoin:round; stroke-width:4; stroke-opacity:1; fill:none" points="
  931.45,147.058 1077.89,147.058 
  "/>
<path clip-path="url(#clip820)" d="M1118.69 148.134 Q1120.19 148.643 1121.61 150.31 Q1123.04 151.977 1124.48 154.893 L1129.22 164.338 L1124.2 164.338 L1119.78 155.472 Q1118.06 152 1116.44 150.865 Q1114.85 149.731 1112.07 149.731 L1106.98 149.731 L1106.98 164.338 L1102.3 164.338 L1102.3 129.778 L1112.86 129.778 Q1118.78 129.778 1121.7 132.254 Q1124.61 134.731 1124.61 139.731 Q1124.61 142.995 1123.09 145.148 Q1121.58 147.301 1118.69 148.134 M1106.98 133.62 L1106.98 145.889 L1112.86 145.889 Q1116.24 145.889 1117.95 144.338 Q1119.68 142.764 1119.68 139.731 Q1119.68 136.699 1117.95 135.171 Q1116.24 133.62 1112.86 133.62 L1106.98 133.62 Z" fill="#000000" fill-rule="evenodd" fill-opacity="1" /><path clip-path="url(#clip820)" d="M1155.1 150.31 L1155.1 152.393 L1135.52 152.393 Q1135.8 156.791 1138.16 159.106 Q1140.54 161.398 1144.78 161.398 Q1147.23 161.398 1149.52 160.796 Q1151.84 160.194 1154.11 158.99 L1154.11 163.018 Q1151.81 163.99 1149.41 164.5 Q1147 165.009 1144.52 165.009 Q1138.32 165.009 1134.68 161.398 Q1131.07 157.787 1131.07 151.629 Q1131.07 145.264 1134.5 141.537 Q1137.95 137.787 1143.78 137.787 Q1149.01 137.787 1152.05 141.166 Q1155.1 144.523 1155.1 150.31 M1150.84 149.06 Q1150.8 145.565 1148.87 143.481 Q1146.98 141.398 1143.83 141.398 Q1140.26 141.398 1138.11 143.412 Q1135.98 145.426 1135.66 149.083 L1150.84 149.06 Z" fill="#000000" fill-rule="evenodd" fill-opacity="1" /><path clip-path="url(#clip820)" d="M1175.22 128.319 L1175.22 131.861 L1171.14 131.861 Q1168.85 131.861 1167.95 132.787 Q1167.07 133.713 1167.07 136.12 L1167.07 138.412 L1174.08 138.412 L1174.08 141.722 L1167.07 141.722 L1167.07 164.338 L1162.79 164.338 L1162.79 141.722 L1158.71 141.722 L1158.71 138.412 L1162.79 138.412 L1162.79 136.606 Q1162.79 132.278 1164.8 130.31 Q1166.81 128.319 1171.19 128.319 L1175.22 128.319 Z" fill="#000000" fill-rule="evenodd" fill-opacity="1" /><path clip-path="url(#clip820)" d="M1178.78 128.319 L1183.04 128.319 L1183.04 164.338 L1178.78 164.338 L1178.78 128.319 Z" fill="#000000" fill-rule="evenodd" fill-opacity="1" /><path clip-path="url(#clip820)" d="M1214.13 150.31 L1214.13 152.393 L1194.55 152.393 Q1194.82 156.791 1197.18 159.106 Q1199.57 161.398 1203.8 161.398 Q1206.26 161.398 1208.55 160.796 Q1210.86 160.194 1213.13 158.99 L1213.13 163.018 Q1210.84 163.99 1208.43 164.5 Q1206.03 165.009 1203.55 165.009 Q1197.35 165.009 1193.71 161.398 Q1190.1 157.787 1190.1 151.629 Q1190.1 145.264 1193.53 141.537 Q1196.98 137.787 1202.81 137.787 Q1208.04 137.787 1211.07 141.166 Q1214.13 144.523 1214.13 150.31 M1209.87 149.06 Q1209.82 145.565 1207.9 143.481 Q1206 141.398 1202.86 141.398 Q1199.29 141.398 1197.14 143.412 Q1195.01 145.426 1194.68 149.083 L1209.87 149.06 Z" fill="#000000" fill-rule="evenodd" fill-opacity="1" /><path clip-path="url(#clip820)" d="M1239.78 139.407 L1239.78 143.389 Q1237.97 142.393 1236.14 141.907 Q1234.34 141.398 1232.48 141.398 Q1228.34 141.398 1226.05 144.037 Q1223.76 146.652 1223.76 151.398 Q1223.76 156.143 1226.05 158.782 Q1228.34 161.398 1232.48 161.398 Q1234.34 161.398 1236.14 160.912 Q1237.97 160.402 1239.78 159.407 L1239.78 163.342 Q1237.99 164.176 1236.07 164.592 Q1234.17 165.009 1232.02 165.009 Q1226.17 165.009 1222.72 161.328 Q1219.27 157.648 1219.27 151.398 Q1219.27 145.055 1222.74 141.421 Q1226.23 137.787 1232.3 137.787 Q1234.27 137.787 1236.14 138.203 Q1238.02 138.597 1239.78 139.407 Z" fill="#000000" fill-rule="evenodd" fill-opacity="1" /><path clip-path="url(#clip820)" d="M1251.4 131.051 L1251.4 138.412 L1260.17 138.412 L1260.17 141.722 L1251.4 141.722 L1251.4 155.796 Q1251.4 158.967 1252.25 159.87 Q1253.13 160.773 1255.79 160.773 L1260.17 160.773 L1260.17 164.338 L1255.79 164.338 Q1250.86 164.338 1248.99 162.509 Q1247.11 160.657 1247.11 155.796 L1247.11 141.722 L1243.99 141.722 L1243.99 138.412 L1247.11 138.412 L1247.11 131.051 L1251.4 131.051 Z" fill="#000000" fill-rule="evenodd" fill-opacity="1" /><path clip-path="url(#clip820)" d="M1265.77 138.412 L1270.03 138.412 L1270.03 164.338 L1265.77 164.338 L1265.77 138.412 M1265.77 128.319 L1270.03 128.319 L1270.03 133.713 L1265.77 133.713 L1265.77 128.319 Z" fill="#000000" fill-rule="evenodd" fill-opacity="1" /><path clip-path="url(#clip820)" d="M1275.89 138.412 L1280.4 138.412 L1288.5 160.171 L1296.6 138.412 L1301.12 138.412 L1291.4 164.338 L1285.61 164.338 L1275.89 138.412 Z" fill="#000000" fill-rule="evenodd" fill-opacity="1" /><path clip-path="url(#clip820)" d="M1307 138.412 L1311.26 138.412 L1311.26 164.338 L1307 164.338 L1307 138.412 M1307 128.319 L1311.26 128.319 L1311.26 133.713 L1307 133.713 L1307 128.319 Z" fill="#000000" fill-rule="evenodd" fill-opacity="1" /><path clip-path="url(#clip820)" d="M1324.38 131.051 L1324.38 138.412 L1333.16 138.412 L1333.16 141.722 L1324.38 141.722 L1324.38 155.796 Q1324.38 158.967 1325.24 159.87 Q1326.12 160.773 1328.78 160.773 L1333.16 160.773 L1333.16 164.338 L1328.78 164.338 Q1323.85 164.338 1321.98 162.509 Q1320.1 160.657 1320.1 155.796 L1320.1 141.722 L1316.98 141.722 L1316.98 138.412 L1320.1 138.412 L1320.1 131.051 L1324.38 131.051 Z" fill="#000000" fill-rule="evenodd" fill-opacity="1" /><path clip-path="url(#clip820)" d="M1349.54 166.745 Q1347.74 171.375 1346.03 172.787 Q1344.31 174.199 1341.44 174.199 L1338.04 174.199 L1338.04 170.634 L1340.54 170.634 Q1342.3 170.634 1343.27 169.8 Q1344.24 168.967 1345.42 165.865 L1346.19 163.921 L1335.7 138.412 L1340.22 138.412 L1348.32 158.689 L1356.42 138.412 L1360.93 138.412 L1349.54 166.745 Z" fill="#000000" fill-rule="evenodd" fill-opacity="1" /><path clip-path="url(#clip820)" d="M1367.9 158.458 L1372.78 158.458 L1372.78 162.439 L1368.99 169.847 L1366 169.847 L1367.9 162.439 L1367.9 158.458 Z" fill="#000000" fill-rule="evenodd" fill-opacity="1" /><path clip-path="url(#clip820)" d="M1407 141.791 Q1403.48 141.791 1401.58 144.338 Q1399.59 147 1399.59 151.398 Q1399.59 156.051 1401.56 158.736 Q1403.55 161.398 1407 161.398 Q1410.4 161.398 1412.39 158.713 Q1414.38 156.027 1414.38 151.398 Q1414.38 147.162 1412.39 144.338 Q1410.56 141.791 1407 141.791 M1407 138.412 L1421.14 138.412 L1421.14 142.671 L1416.37 142.671 Q1418.9 146.282 1418.9 151.398 Q1418.9 157.764 1415.72 161.375 Q1412.55 165.009 1407 165.009 Q1401.42 165.009 1398.27 161.375 Q1395.1 157.764 1395.1 151.398 Q1395.1 144.986 1398.27 141.398 Q1400.89 138.412 1407 138.412 Z" fill="#000000" fill-rule="evenodd" fill-opacity="1" /><path clip-path="url(#clip820)" d="M1442.62 142.81 L1472.3 142.81 L1472.3 146.699 L1442.62 146.699 L1442.62 142.81 M1442.62 152.254 L1472.3 152.254 L1472.3 156.189 L1442.62 156.189 L1442.62 152.254 Z" fill="#000000" fill-rule="evenodd" fill-opacity="1" /><path clip-path="url(#clip820)" d="M1513.99 156.259 Q1513.27 155.426 1512.14 153.481 Q1510.59 156.259 1509.22 157.486 Q1507.51 158.967 1504.84 158.967 Q1501.72 158.967 1499.66 156.629 Q1497.48 154.176 1497.48 150.125 Q1497.48 146.236 1499.66 143.597 Q1501.6 141.259 1504.89 141.259 Q1506.58 141.259 1507.83 141.953 Q1509.29 142.717 1510.28 144.037 Q1511.21 145.217 1512.14 146.814 Q1513.69 144.037 1515.05 142.81 Q1516.77 141.328 1519.43 141.328 Q1522.55 141.328 1524.61 143.666 Q1526.79 146.12 1526.79 150.171 Q1526.79 154.06 1524.61 156.699 Q1522.67 159.037 1519.38 159.037 Q1517.69 159.037 1516.44 158.342 Q1515.19 157.717 1513.99 156.259 M1504.59 155.935 Q1508.41 155.935 1510.7 150.379 Q1507.76 144.315 1504.59 144.315 Q1502.27 144.315 1501.09 145.981 Q1499.82 147.764 1499.82 150.125 Q1499.82 152.717 1501.09 154.314 Q1502.39 155.935 1504.59 155.935 M1519.68 144.361 Q1516.23 144.361 1513.57 149.916 Q1516.49 155.981 1519.68 155.981 Q1522 155.981 1523.18 154.314 Q1524.45 152.532 1524.45 150.171 Q1524.45 147.578 1523.18 145.981 Q1521.88 144.361 1519.68 144.361 Z" fill="#000000" fill-rule="evenodd" fill-opacity="1" /><path clip-path="url(#clip820)" d="M1561.65 128.366 Q1558.55 133.69 1557.04 138.898 Q1555.54 144.106 1555.54 149.453 Q1555.54 154.801 1557.04 160.055 Q1558.57 165.287 1561.65 170.588 L1557.95 170.588 Q1554.47 165.148 1552.74 159.893 Q1551.02 154.639 1551.02 149.453 Q1551.02 144.291 1552.74 139.06 Q1554.45 133.828 1557.95 128.366 L1561.65 128.366 Z" fill="#000000" fill-rule="evenodd" fill-opacity="1" /><path clip-path="url(#clip820)" d="M1591.46 148.689 L1591.46 164.338 L1587.21 164.338 L1587.21 148.828 Q1587.21 145.148 1585.77 143.319 Q1584.33 141.49 1581.46 141.49 Q1578.02 141.49 1576.02 143.69 Q1574.03 145.889 1574.03 149.685 L1574.03 164.338 L1569.75 164.338 L1569.75 138.412 L1574.03 138.412 L1574.03 142.44 Q1575.56 140.102 1577.62 138.944 Q1579.71 137.787 1582.41 137.787 Q1586.88 137.787 1589.17 140.565 Q1591.46 143.319 1591.46 148.689 Z" fill="#000000" fill-rule="evenodd" fill-opacity="1" /><path clip-path="url(#clip820)" d="M1610.01 141.398 Q1606.58 141.398 1604.59 144.083 Q1602.6 146.745 1602.6 151.398 Q1602.6 156.051 1604.57 158.736 Q1606.56 161.398 1610.01 161.398 Q1613.41 161.398 1615.4 158.713 Q1617.39 156.027 1617.39 151.398 Q1617.39 146.791 1615.4 144.106 Q1613.41 141.398 1610.01 141.398 M1610.01 137.787 Q1615.56 137.787 1618.73 141.398 Q1621.9 145.009 1621.9 151.398 Q1621.9 157.764 1618.73 161.398 Q1615.56 165.009 1610.01 165.009 Q1604.43 165.009 1601.26 161.398 Q1598.11 157.764 1598.11 151.398 Q1598.11 145.009 1601.26 141.398 Q1604.43 137.787 1610.01 137.787 Z" fill="#000000" fill-rule="evenodd" fill-opacity="1" /><path clip-path="url(#clip820)" d="M1661.09 142.347 L1661.09 128.319 L1665.35 128.319 L1665.35 164.338 L1661.09 164.338 L1661.09 160.449 Q1659.75 162.763 1657.69 163.898 Q1655.65 165.009 1652.78 165.009 Q1648.08 165.009 1645.12 161.259 Q1642.18 157.509 1642.18 151.398 Q1642.18 145.287 1645.12 141.537 Q1648.08 137.787 1652.78 137.787 Q1655.65 137.787 1657.69 138.921 Q1659.75 140.032 1661.09 142.347 M1646.58 151.398 Q1646.58 156.097 1648.5 158.782 Q1650.45 161.444 1653.83 161.444 Q1657.2 161.444 1659.15 158.782 Q1661.09 156.097 1661.09 151.398 Q1661.09 146.699 1659.15 144.037 Q1657.2 141.352 1653.83 141.352 Q1650.45 141.352 1648.5 144.037 Q1646.58 146.699 1646.58 151.398 Z" fill="#000000" fill-rule="evenodd" fill-opacity="1" /><path clip-path="url(#clip820)" d="M1696.3 150.31 L1696.3 152.393 L1676.72 152.393 Q1677 156.791 1679.36 159.106 Q1681.74 161.398 1685.98 161.398 Q1688.43 161.398 1690.72 160.796 Q1693.04 160.194 1695.31 158.99 L1695.31 163.018 Q1693.01 163.99 1690.61 164.5 Q1688.2 165.009 1685.72 165.009 Q1679.52 165.009 1675.89 161.398 Q1672.27 157.787 1672.27 151.629 Q1672.27 145.264 1675.7 141.537 Q1679.15 137.787 1684.98 137.787 Q1690.21 137.787 1693.25 141.166 Q1696.3 144.523 1696.3 150.31 M1692.04 149.06 Q1692 145.565 1690.07 143.481 Q1688.18 141.398 1685.03 141.398 Q1681.46 141.398 1679.31 143.412 Q1677.18 145.426 1676.86 149.083 L1692.04 149.06 Z" fill="#000000" fill-rule="evenodd" fill-opacity="1" /><path clip-path="url(#clip820)" d="M1721.95 139.407 L1721.95 143.389 Q1720.14 142.393 1718.32 141.907 Q1716.51 141.398 1714.66 141.398 Q1710.51 141.398 1708.22 144.037 Q1705.93 146.652 1705.93 151.398 Q1705.93 156.143 1708.22 158.782 Q1710.51 161.398 1714.66 161.398 Q1716.51 161.398 1718.32 160.912 Q1720.14 160.402 1721.95 159.407 L1721.95 163.342 Q1720.17 164.176 1718.25 164.592 Q1716.35 165.009 1714.2 165.009 Q1708.34 165.009 1704.89 161.328 Q1701.44 157.648 1701.44 151.398 Q1701.44 145.055 1704.91 141.421 Q1708.41 137.787 1714.47 137.787 Q1716.44 137.787 1718.32 138.203 Q1720.19 138.597 1721.95 139.407 Z" fill="#000000" fill-rule="evenodd" fill-opacity="1" /><path clip-path="url(#clip820)" d="M1741.14 151.305 Q1735.98 151.305 1733.99 152.486 Q1732 153.666 1732 156.514 Q1732 158.782 1733.48 160.125 Q1734.98 161.444 1737.55 161.444 Q1741.09 161.444 1743.22 158.944 Q1745.38 156.421 1745.38 152.254 L1745.38 151.305 L1741.14 151.305 M1749.63 149.546 L1749.63 164.338 L1745.38 164.338 L1745.38 160.402 Q1743.92 162.763 1741.74 163.898 Q1739.57 165.009 1736.42 165.009 Q1732.44 165.009 1730.07 162.787 Q1727.74 160.541 1727.74 156.791 Q1727.74 152.416 1730.65 150.194 Q1733.59 147.972 1739.4 147.972 L1745.38 147.972 L1745.38 147.555 Q1745.38 144.615 1743.43 143.018 Q1741.51 141.398 1738.01 141.398 Q1735.79 141.398 1733.69 141.93 Q1731.58 142.463 1729.63 143.527 L1729.63 139.592 Q1731.97 138.69 1734.17 138.25 Q1736.37 137.787 1738.45 137.787 Q1744.08 137.787 1746.86 140.703 Q1749.63 143.62 1749.63 149.546 Z" fill="#000000" fill-rule="evenodd" fill-opacity="1" /><path clip-path="url(#clip820)" d="M1769.19 166.745 Q1767.39 171.375 1765.68 172.787 Q1763.96 174.199 1761.09 174.199 L1757.69 174.199 L1757.69 170.634 L1760.19 170.634 Q1761.95 170.634 1762.92 169.8 Q1763.89 168.967 1765.07 165.865 L1765.84 163.921 L1755.35 138.412 L1759.87 138.412 L1767.97 158.689 L1776.07 138.412 L1780.58 138.412 L1769.19 166.745 Z" fill="#000000" fill-rule="evenodd" fill-opacity="1" /><path clip-path="url(#clip820)" d="M1785.79 128.366 L1789.5 128.366 Q1792.97 133.828 1794.68 139.06 Q1796.42 144.291 1796.42 149.453 Q1796.42 154.639 1794.68 159.893 Q1792.97 165.148 1789.5 170.588 L1785.79 170.588 Q1788.87 165.287 1790.38 160.055 Q1791.9 154.801 1791.9 149.453 Q1791.9 144.106 1790.38 138.898 Q1788.87 133.69 1785.79 128.366 Z" fill="#000000" fill-rule="evenodd" fill-opacity="1" /><polyline clip-path="url(#clip820)" style="stroke:#e26f46; stroke-linecap:butt; stroke-linejoin:round; stroke-width:4; stroke-opacity:1; fill:none" points="
  931.45,198.898 1077.89,198.898 
  "/>
<path clip-path="url(#clip820)" d="M1118.69 199.974 Q1120.19 200.483 1121.61 202.15 Q1123.04 203.817 1124.48 206.733 L1129.22 216.178 L1124.2 216.178 L1119.78 207.312 Q1118.06 203.84 1116.44 202.705 Q1114.85 201.571 1112.07 201.571 L1106.98 201.571 L1106.98 216.178 L1102.3 216.178 L1102.3 181.618 L1112.86 181.618 Q1118.78 181.618 1121.7 184.094 Q1124.61 186.571 1124.61 191.571 Q1124.61 194.835 1123.09 196.988 Q1121.58 199.141 1118.69 199.974 M1106.98 185.46 L1106.98 197.729 L1112.86 197.729 Q1116.24 197.729 1117.95 196.178 Q1119.68 194.604 1119.68 191.571 Q1119.68 188.539 1117.95 187.011 Q1116.24 185.46 1112.86 185.46 L1106.98 185.46 Z" fill="#000000" fill-rule="evenodd" fill-opacity="1" /><path clip-path="url(#clip820)" d="M1155.1 202.15 L1155.1 204.233 L1135.52 204.233 Q1135.8 208.631 1138.16 210.946 Q1140.54 213.238 1144.78 213.238 Q1147.23 213.238 1149.52 212.636 Q1151.84 212.034 1154.11 210.83 L1154.11 214.858 Q1151.81 215.83 1149.41 216.34 Q1147 216.849 1144.52 216.849 Q1138.32 216.849 1134.68 213.238 Q1131.07 209.627 1131.07 203.469 Q1131.07 197.104 1134.5 193.377 Q1137.95 189.627 1143.78 189.627 Q1149.01 189.627 1152.05 193.006 Q1155.1 196.363 1155.1 202.15 M1150.84 200.9 Q1150.8 197.405 1148.87 195.321 Q1146.98 193.238 1143.83 193.238 Q1140.26 193.238 1138.11 195.252 Q1135.98 197.266 1135.66 200.923 L1150.84 200.9 Z" fill="#000000" fill-rule="evenodd" fill-opacity="1" /><path clip-path="url(#clip820)" d="M1175.22 180.159 L1175.22 183.701 L1171.14 183.701 Q1168.85 183.701 1167.95 184.627 Q1167.07 185.553 1167.07 187.96 L1167.07 190.252 L1174.08 190.252 L1174.08 193.562 L1167.07 193.562 L1167.07 216.178 L1162.79 216.178 L1162.79 193.562 L1158.71 193.562 L1158.71 190.252 L1162.79 190.252 L1162.79 188.446 Q1162.79 184.118 1164.8 182.15 Q1166.81 180.159 1171.19 180.159 L1175.22 180.159 Z" fill="#000000" fill-rule="evenodd" fill-opacity="1" /><path clip-path="url(#clip820)" d="M1178.78 180.159 L1183.04 180.159 L1183.04 216.178 L1178.78 216.178 L1178.78 180.159 Z" fill="#000000" fill-rule="evenodd" fill-opacity="1" /><path clip-path="url(#clip820)" d="M1214.13 202.15 L1214.13 204.233 L1194.55 204.233 Q1194.82 208.631 1197.18 210.946 Q1199.57 213.238 1203.8 213.238 Q1206.26 213.238 1208.55 212.636 Q1210.86 212.034 1213.13 210.83 L1213.13 214.858 Q1210.84 215.83 1208.43 216.34 Q1206.03 216.849 1203.55 216.849 Q1197.35 216.849 1193.71 213.238 Q1190.1 209.627 1190.1 203.469 Q1190.1 197.104 1193.53 193.377 Q1196.98 189.627 1202.81 189.627 Q1208.04 189.627 1211.07 193.006 Q1214.13 196.363 1214.13 202.15 M1209.87 200.9 Q1209.82 197.405 1207.9 195.321 Q1206 193.238 1202.86 193.238 Q1199.29 193.238 1197.14 195.252 Q1195.01 197.266 1194.68 200.923 L1209.87 200.9 Z" fill="#000000" fill-rule="evenodd" fill-opacity="1" /><path clip-path="url(#clip820)" d="M1239.78 191.247 L1239.78 195.229 Q1237.97 194.233 1236.14 193.747 Q1234.34 193.238 1232.48 193.238 Q1228.34 193.238 1226.05 195.877 Q1223.76 198.492 1223.76 203.238 Q1223.76 207.983 1226.05 210.622 Q1228.34 213.238 1232.48 213.238 Q1234.34 213.238 1236.14 212.752 Q1237.97 212.242 1239.78 211.247 L1239.78 215.182 Q1237.99 216.016 1236.07 216.432 Q1234.17 216.849 1232.02 216.849 Q1226.17 216.849 1222.72 213.168 Q1219.27 209.488 1219.27 203.238 Q1219.27 196.895 1222.74 193.261 Q1226.23 189.627 1232.3 189.627 Q1234.27 189.627 1236.14 190.043 Q1238.02 190.437 1239.78 191.247 Z" fill="#000000" fill-rule="evenodd" fill-opacity="1" /><path clip-path="url(#clip820)" d="M1251.4 182.891 L1251.4 190.252 L1260.17 190.252 L1260.17 193.562 L1251.4 193.562 L1251.4 207.636 Q1251.4 210.807 1252.25 211.71 Q1253.13 212.613 1255.79 212.613 L1260.17 212.613 L1260.17 216.178 L1255.79 216.178 Q1250.86 216.178 1248.99 214.349 Q1247.11 212.497 1247.11 207.636 L1247.11 193.562 L1243.99 193.562 L1243.99 190.252 L1247.11 190.252 L1247.11 182.891 L1251.4 182.891 Z" fill="#000000" fill-rule="evenodd" fill-opacity="1" /><path clip-path="url(#clip820)" d="M1265.77 190.252 L1270.03 190.252 L1270.03 216.178 L1265.77 216.178 L1265.77 190.252 M1265.77 180.159 L1270.03 180.159 L1270.03 185.553 L1265.77 185.553 L1265.77 180.159 Z" fill="#000000" fill-rule="evenodd" fill-opacity="1" /><path clip-path="url(#clip820)" d="M1275.89 190.252 L1280.4 190.252 L1288.5 212.011 L1296.6 190.252 L1301.12 190.252 L1291.4 216.178 L1285.61 216.178 L1275.89 190.252 Z" fill="#000000" fill-rule="evenodd" fill-opacity="1" /><path clip-path="url(#clip820)" d="M1307 190.252 L1311.26 190.252 L1311.26 216.178 L1307 216.178 L1307 190.252 M1307 180.159 L1311.26 180.159 L1311.26 185.553 L1307 185.553 L1307 180.159 Z" fill="#000000" fill-rule="evenodd" fill-opacity="1" /><path clip-path="url(#clip820)" d="M1324.38 182.891 L1324.38 190.252 L1333.16 190.252 L1333.16 193.562 L1324.38 193.562 L1324.38 207.636 Q1324.38 210.807 1325.24 211.71 Q1326.12 212.613 1328.78 212.613 L1333.16 212.613 L1333.16 216.178 L1328.78 216.178 Q1323.85 216.178 1321.98 214.349 Q1320.1 212.497 1320.1 207.636 L1320.1 193.562 L1316.98 193.562 L1316.98 190.252 L1320.1 190.252 L1320.1 182.891 L1324.38 182.891 Z" fill="#000000" fill-rule="evenodd" fill-opacity="1" /><path clip-path="url(#clip820)" d="M1349.54 218.585 Q1347.74 223.215 1346.03 224.627 Q1344.31 226.039 1341.44 226.039 L1338.04 226.039 L1338.04 222.474 L1340.54 222.474 Q1342.3 222.474 1343.27 221.64 Q1344.24 220.807 1345.42 217.705 L1346.19 215.761 L1335.7 190.252 L1340.22 190.252 L1348.32 210.529 L1356.42 190.252 L1360.93 190.252 L1349.54 218.585 Z" fill="#000000" fill-rule="evenodd" fill-opacity="1" /><path clip-path="url(#clip820)" d="M1367.9 210.298 L1372.78 210.298 L1372.78 214.279 L1368.99 221.687 L1366 221.687 L1367.9 214.279 L1367.9 210.298 Z" fill="#000000" fill-rule="evenodd" fill-opacity="1" /><path clip-path="url(#clip820)" d="M1407 193.631 Q1403.48 193.631 1401.58 196.178 Q1399.59 198.84 1399.59 203.238 Q1399.59 207.891 1401.56 210.576 Q1403.55 213.238 1407 213.238 Q1410.4 213.238 1412.39 210.553 Q1414.38 207.867 1414.38 203.238 Q1414.38 199.002 1412.39 196.178 Q1410.56 193.631 1407 193.631 M1407 190.252 L1421.14 190.252 L1421.14 194.511 L1416.37 194.511 Q1418.9 198.122 1418.9 203.238 Q1418.9 209.604 1415.72 213.215 Q1412.55 216.849 1407 216.849 Q1401.42 216.849 1398.27 213.215 Q1395.1 209.604 1395.1 203.238 Q1395.1 196.826 1398.27 193.238 Q1400.89 190.252 1407 190.252 Z" fill="#000000" fill-rule="evenodd" fill-opacity="1" /><path clip-path="url(#clip820)" d="M1475.01 200.275 L1475.01 202.358 L1465.91 211.455 L1463.13 208.678 L1468.53 203.284 L1440.31 203.284 L1440.31 199.349 L1468.53 199.349 L1463.13 193.955 L1465.91 191.178 L1475.01 200.275 Z" fill="#000000" fill-rule="evenodd" fill-opacity="1" /><path clip-path="url(#clip820)" d="M1507.46 184.696 Q1503.85 184.696 1502.02 188.261 Q1500.21 191.803 1500.21 198.932 Q1500.21 206.039 1502.02 209.604 Q1503.85 213.145 1507.46 213.145 Q1511.09 213.145 1512.9 209.604 Q1514.73 206.039 1514.73 198.932 Q1514.73 191.803 1512.9 188.261 Q1511.09 184.696 1507.46 184.696 M1507.46 180.993 Q1513.27 180.993 1516.33 185.599 Q1519.4 190.182 1519.4 198.932 Q1519.4 207.659 1516.33 212.266 Q1513.27 216.849 1507.46 216.849 Q1501.65 216.849 1498.57 212.266 Q1495.52 207.659 1495.52 198.932 Q1495.52 190.182 1498.57 185.599 Q1501.65 180.993 1507.46 180.993 Z" fill="#000000" fill-rule="evenodd" fill-opacity="1" /><path clip-path="url(#clip820)" d="M1552.32 180.206 Q1549.22 185.53 1547.71 190.738 Q1546.21 195.946 1546.21 201.293 Q1546.21 206.641 1547.71 211.895 Q1549.24 217.127 1552.32 222.428 L1548.62 222.428 Q1545.15 216.988 1543.41 211.733 Q1541.7 206.479 1541.7 201.293 Q1541.7 196.131 1543.41 190.9 Q1545.12 185.668 1548.62 180.206 L1552.32 180.206 Z" fill="#000000" fill-rule="evenodd" fill-opacity="1" /><path clip-path="url(#clip820)" d="M1560.58 180.159 L1564.84 180.159 L1564.84 216.178 L1560.58 216.178 L1560.58 180.159 Z" fill="#000000" fill-rule="evenodd" fill-opacity="1" /><path clip-path="url(#clip820)" d="M1585.54 203.145 Q1580.38 203.145 1578.39 204.326 Q1576.39 205.506 1576.39 208.354 Q1576.39 210.622 1577.88 211.965 Q1579.38 213.284 1581.95 213.284 Q1585.49 213.284 1587.62 210.784 Q1589.77 208.261 1589.77 204.094 L1589.77 203.145 L1585.54 203.145 M1594.03 201.386 L1594.03 216.178 L1589.77 216.178 L1589.77 212.242 Q1588.32 214.603 1586.14 215.738 Q1583.96 216.849 1580.82 216.849 Q1576.83 216.849 1574.47 214.627 Q1572.14 212.381 1572.14 208.631 Q1572.14 204.256 1575.05 202.034 Q1577.99 199.812 1583.8 199.812 L1589.77 199.812 L1589.77 199.395 Q1589.77 196.455 1587.83 194.858 Q1585.91 193.238 1582.41 193.238 Q1580.19 193.238 1578.08 193.77 Q1575.98 194.303 1574.03 195.367 L1574.03 191.432 Q1576.37 190.53 1578.57 190.09 Q1580.77 189.627 1582.85 189.627 Q1588.48 189.627 1591.26 192.543 Q1594.03 195.46 1594.03 201.386 Z" fill="#000000" fill-rule="evenodd" fill-opacity="1" /><path clip-path="url(#clip820)" d="M1617.83 194.233 Q1617.11 193.817 1616.26 193.631 Q1615.42 193.423 1614.4 193.423 Q1610.79 193.423 1608.85 195.784 Q1606.93 198.122 1606.93 202.52 L1606.93 216.178 L1602.64 216.178 L1602.64 190.252 L1606.93 190.252 L1606.93 194.28 Q1608.27 191.918 1610.42 190.784 Q1612.58 189.627 1615.65 189.627 Q1616.09 189.627 1616.63 189.696 Q1617.16 189.743 1617.81 189.858 L1617.83 194.233 Z" fill="#000000" fill-rule="evenodd" fill-opacity="1" /><path clip-path="url(#clip820)" d="M1638.52 202.914 Q1638.52 198.284 1636.6 195.738 Q1634.7 193.192 1631.26 193.192 Q1627.83 193.192 1625.91 195.738 Q1624.01 198.284 1624.01 202.914 Q1624.01 207.52 1625.91 210.066 Q1627.83 212.613 1631.26 212.613 Q1634.7 212.613 1636.6 210.066 Q1638.52 207.52 1638.52 202.914 M1642.78 212.96 Q1642.78 219.58 1639.84 222.798 Q1636.9 226.039 1630.84 226.039 Q1628.59 226.039 1626.6 225.691 Q1624.61 225.367 1622.74 224.673 L1622.74 220.529 Q1624.61 221.548 1626.44 222.034 Q1628.27 222.52 1630.17 222.52 Q1634.36 222.52 1636.44 220.321 Q1638.52 218.145 1638.52 213.724 L1638.52 211.617 Q1637.2 213.909 1635.14 215.043 Q1633.08 216.178 1630.21 216.178 Q1625.45 216.178 1622.53 212.543 Q1619.61 208.909 1619.61 202.914 Q1619.61 196.895 1622.53 193.261 Q1625.45 189.627 1630.21 189.627 Q1633.08 189.627 1635.14 190.761 Q1637.2 191.895 1638.52 194.187 L1638.52 190.252 L1642.78 190.252 L1642.78 212.96 Z" fill="#000000" fill-rule="evenodd" fill-opacity="1" /><path clip-path="url(#clip820)" d="M1673.73 202.15 L1673.73 204.233 L1654.15 204.233 Q1654.43 208.631 1656.79 210.946 Q1659.17 213.238 1663.41 213.238 Q1665.86 213.238 1668.15 212.636 Q1670.47 212.034 1672.74 210.83 L1672.74 214.858 Q1670.45 215.83 1668.04 216.34 Q1665.63 216.849 1663.15 216.849 Q1656.95 216.849 1653.32 213.238 Q1649.7 209.627 1649.7 203.469 Q1649.7 197.104 1653.13 193.377 Q1656.58 189.627 1662.41 189.627 Q1667.64 189.627 1670.68 193.006 Q1673.73 196.363 1673.73 202.15 M1669.47 200.9 Q1669.43 197.405 1667.51 195.321 Q1665.61 193.238 1662.46 193.238 Q1658.89 193.238 1656.74 195.252 Q1654.61 197.266 1654.29 200.923 L1669.47 200.9 Z" fill="#000000" fill-rule="evenodd" fill-opacity="1" /><path clip-path="url(#clip820)" d="M1712.85 194.187 L1712.85 180.159 L1717.11 180.159 L1717.11 216.178 L1712.85 216.178 L1712.85 212.289 Q1711.51 214.603 1709.45 215.738 Q1707.41 216.849 1704.54 216.849 Q1699.84 216.849 1696.88 213.099 Q1693.94 209.349 1693.94 203.238 Q1693.94 197.127 1696.88 193.377 Q1699.84 189.627 1704.54 189.627 Q1707.41 189.627 1709.45 190.761 Q1711.51 191.872 1712.85 194.187 M1698.34 203.238 Q1698.34 207.937 1700.26 210.622 Q1702.2 213.284 1705.58 213.284 Q1708.96 213.284 1710.91 210.622 Q1712.85 207.937 1712.85 203.238 Q1712.85 198.539 1710.91 195.877 Q1708.96 193.192 1705.58 193.192 Q1702.2 193.192 1700.26 195.877 Q1698.34 198.539 1698.34 203.238 Z" fill="#000000" fill-rule="evenodd" fill-opacity="1" /><path clip-path="url(#clip820)" d="M1748.06 202.15 L1748.06 204.233 L1728.48 204.233 Q1728.76 208.631 1731.12 210.946 Q1733.5 213.238 1737.74 213.238 Q1740.19 213.238 1742.48 212.636 Q1744.8 212.034 1747.07 210.83 L1747.07 214.858 Q1744.77 215.83 1742.37 216.34 Q1739.96 216.849 1737.48 216.849 Q1731.28 216.849 1727.64 213.238 Q1724.03 209.627 1724.03 203.469 Q1724.03 197.104 1727.46 193.377 Q1730.91 189.627 1736.74 189.627 Q1741.97 189.627 1745.01 193.006 Q1748.06 196.363 1748.06 202.15 M1743.8 200.9 Q1743.76 197.405 1741.83 195.321 Q1739.94 193.238 1736.79 193.238 Q1733.22 193.238 1731.07 195.252 Q1728.94 197.266 1728.62 200.923 L1743.8 200.9 Z" fill="#000000" fill-rule="evenodd" fill-opacity="1" /><path clip-path="url(#clip820)" d="M1773.71 191.247 L1773.71 195.229 Q1771.9 194.233 1770.07 193.747 Q1768.27 193.238 1766.42 193.238 Q1762.27 193.238 1759.98 195.877 Q1757.69 198.492 1757.69 203.238 Q1757.69 207.983 1759.98 210.622 Q1762.27 213.238 1766.42 213.238 Q1768.27 213.238 1770.07 212.752 Q1771.9 212.242 1773.71 211.247 L1773.71 215.182 Q1771.93 216.016 1770.01 216.432 Q1768.11 216.849 1765.95 216.849 Q1760.1 216.849 1756.65 213.168 Q1753.2 209.488 1753.2 203.238 Q1753.2 196.895 1756.67 193.261 Q1760.17 189.627 1766.23 189.627 Q1768.2 189.627 1770.07 190.043 Q1771.95 190.437 1773.71 191.247 Z" fill="#000000" fill-rule="evenodd" fill-opacity="1" /><path clip-path="url(#clip820)" d="M1792.9 203.145 Q1787.74 203.145 1785.75 204.326 Q1783.75 205.506 1783.75 208.354 Q1783.75 210.622 1785.24 211.965 Q1786.74 213.284 1789.31 213.284 Q1792.85 213.284 1794.98 210.784 Q1797.13 208.261 1797.13 204.094 L1797.13 203.145 L1792.9 203.145 M1801.39 201.386 L1801.39 216.178 L1797.13 216.178 L1797.13 212.242 Q1795.68 214.603 1793.5 215.738 Q1791.32 216.849 1788.18 216.849 Q1784.19 216.849 1781.83 214.627 Q1779.5 212.381 1779.5 208.631 Q1779.5 204.256 1782.41 202.034 Q1785.35 199.812 1791.16 199.812 L1797.13 199.812 L1797.13 199.395 Q1797.13 196.455 1795.19 194.858 Q1793.27 193.238 1789.77 193.238 Q1787.55 193.238 1785.44 193.77 Q1783.34 194.303 1781.39 195.367 L1781.39 191.432 Q1783.73 190.53 1785.93 190.09 Q1788.13 189.627 1790.21 189.627 Q1795.84 189.627 1798.62 192.543 Q1801.39 195.46 1801.39 201.386 Z" fill="#000000" fill-rule="evenodd" fill-opacity="1" /><path clip-path="url(#clip820)" d="M1820.95 218.585 Q1819.15 223.215 1817.44 224.627 Q1815.72 226.039 1812.85 226.039 L1809.45 226.039 L1809.45 222.474 L1811.95 222.474 Q1813.71 222.474 1814.68 221.64 Q1815.65 220.807 1816.83 217.705 L1817.6 215.761 L1807.11 190.252 L1811.63 190.252 L1819.73 210.529 L1827.83 190.252 L1832.34 190.252 L1820.95 218.585 Z" fill="#000000" fill-rule="evenodd" fill-opacity="1" /><path clip-path="url(#clip820)" d="M1837.55 180.206 L1841.25 180.206 Q1844.73 185.668 1846.44 190.9 Q1848.18 196.131 1848.18 201.293 Q1848.18 206.479 1846.44 211.733 Q1844.73 216.988 1841.25 222.428 L1837.55 222.428 Q1840.63 217.127 1842.13 211.895 Q1843.66 206.641 1843.66 201.293 Q1843.66 195.946 1842.13 190.738 Q1840.63 185.53 1837.55 180.206 Z" fill="#000000" fill-rule="evenodd" fill-opacity="1" /><polyline clip-path="url(#clip820)" style="stroke:#3da44d; stroke-linecap:butt; stroke-linejoin:round; stroke-width:4; stroke-opacity:1; fill:none" points="
  931.45,250.738 1077.89,250.738 
  "/>
<path clip-path="url(#clip820)" d="M1118.69 251.814 Q1120.19 252.323 1121.61 253.99 Q1123.04 255.657 1124.48 258.573 L1129.22 268.018 L1124.2 268.018 L1119.78 259.152 Q1118.06 255.68 1116.44 254.545 Q1114.85 253.411 1112.07 253.411 L1106.98 253.411 L1106.98 268.018 L1102.3 268.018 L1102.3 233.458 L1112.86 233.458 Q1118.78 233.458 1121.7 235.934 Q1124.61 238.411 1124.61 243.411 Q1124.61 246.675 1123.09 248.828 Q1121.58 250.981 1118.69 251.814 M1106.98 237.3 L1106.98 249.569 L1112.86 249.569 Q1116.24 249.569 1117.95 248.018 Q1119.68 246.444 1119.68 243.411 Q1119.68 240.379 1117.95 238.851 Q1116.24 237.3 1112.86 237.3 L1106.98 237.3 Z" fill="#000000" fill-rule="evenodd" fill-opacity="1" /><path clip-path="url(#clip820)" d="M1155.1 253.99 L1155.1 256.073 L1135.52 256.073 Q1135.8 260.471 1138.16 262.786 Q1140.54 265.078 1144.78 265.078 Q1147.23 265.078 1149.52 264.476 Q1151.84 263.874 1154.11 262.67 L1154.11 266.698 Q1151.81 267.67 1149.41 268.18 Q1147 268.689 1144.52 268.689 Q1138.32 268.689 1134.68 265.078 Q1131.07 261.467 1131.07 255.309 Q1131.07 248.944 1134.5 245.217 Q1137.95 241.467 1143.78 241.467 Q1149.01 241.467 1152.05 244.846 Q1155.1 248.203 1155.1 253.99 M1150.84 252.74 Q1150.8 249.245 1148.87 247.161 Q1146.98 245.078 1143.83 245.078 Q1140.26 245.078 1138.11 247.092 Q1135.98 249.106 1135.66 252.763 L1150.84 252.74 Z" fill="#000000" fill-rule="evenodd" fill-opacity="1" /><path clip-path="url(#clip820)" d="M1175.22 231.999 L1175.22 235.541 L1171.14 235.541 Q1168.85 235.541 1167.95 236.467 Q1167.07 237.393 1167.07 239.8 L1167.07 242.092 L1174.08 242.092 L1174.08 245.402 L1167.07 245.402 L1167.07 268.018 L1162.79 268.018 L1162.79 245.402 L1158.71 245.402 L1158.71 242.092 L1162.79 242.092 L1162.79 240.286 Q1162.79 235.958 1164.8 233.99 Q1166.81 231.999 1171.19 231.999 L1175.22 231.999 Z" fill="#000000" fill-rule="evenodd" fill-opacity="1" /><path clip-path="url(#clip820)" d="M1178.78 231.999 L1183.04 231.999 L1183.04 268.018 L1178.78 268.018 L1178.78 231.999 Z" fill="#000000" fill-rule="evenodd" fill-opacity="1" /><path clip-path="url(#clip820)" d="M1214.13 253.99 L1214.13 256.073 L1194.55 256.073 Q1194.82 260.471 1197.18 262.786 Q1199.57 265.078 1203.8 265.078 Q1206.26 265.078 1208.55 264.476 Q1210.86 263.874 1213.13 262.67 L1213.13 266.698 Q1210.84 267.67 1208.43 268.18 Q1206.03 268.689 1203.55 268.689 Q1197.35 268.689 1193.71 265.078 Q1190.1 261.467 1190.1 255.309 Q1190.1 248.944 1193.53 245.217 Q1196.98 241.467 1202.81 241.467 Q1208.04 241.467 1211.07 244.846 Q1214.13 248.203 1214.13 253.99 M1209.87 252.74 Q1209.82 249.245 1207.9 247.161 Q1206 245.078 1202.86 245.078 Q1199.29 245.078 1197.14 247.092 Q1195.01 249.106 1194.68 252.763 L1209.87 252.74 Z" fill="#000000" fill-rule="evenodd" fill-opacity="1" /><path clip-path="url(#clip820)" d="M1239.78 243.087 L1239.78 247.069 Q1237.97 246.073 1236.14 245.587 Q1234.34 245.078 1232.48 245.078 Q1228.34 245.078 1226.05 247.717 Q1223.76 250.332 1223.76 255.078 Q1223.76 259.823 1226.05 262.462 Q1228.34 265.078 1232.48 265.078 Q1234.34 265.078 1236.14 264.592 Q1237.97 264.082 1239.78 263.087 L1239.78 267.022 Q1237.99 267.856 1236.07 268.272 Q1234.17 268.689 1232.02 268.689 Q1226.17 268.689 1222.72 265.008 Q1219.27 261.328 1219.27 255.078 Q1219.27 248.735 1222.74 245.101 Q1226.23 241.467 1232.3 241.467 Q1234.27 241.467 1236.14 241.883 Q1238.02 242.277 1239.78 243.087 Z" fill="#000000" fill-rule="evenodd" fill-opacity="1" /><path clip-path="url(#clip820)" d="M1251.4 234.731 L1251.4 242.092 L1260.17 242.092 L1260.17 245.402 L1251.4 245.402 L1251.4 259.476 Q1251.4 262.647 1252.25 263.55 Q1253.13 264.453 1255.79 264.453 L1260.17 264.453 L1260.17 268.018 L1255.79 268.018 Q1250.86 268.018 1248.99 266.189 Q1247.11 264.337 1247.11 259.476 L1247.11 245.402 L1243.99 245.402 L1243.99 242.092 L1247.11 242.092 L1247.11 234.731 L1251.4 234.731 Z" fill="#000000" fill-rule="evenodd" fill-opacity="1" /><path clip-path="url(#clip820)" d="M1265.77 242.092 L1270.03 242.092 L1270.03 268.018 L1265.77 268.018 L1265.77 242.092 M1265.77 231.999 L1270.03 231.999 L1270.03 237.393 L1265.77 237.393 L1265.77 231.999 Z" fill="#000000" fill-rule="evenodd" fill-opacity="1" /><path clip-path="url(#clip820)" d="M1275.89 242.092 L1280.4 242.092 L1288.5 263.851 L1296.6 242.092 L1301.12 242.092 L1291.4 268.018 L1285.61 268.018 L1275.89 242.092 Z" fill="#000000" fill-rule="evenodd" fill-opacity="1" /><path clip-path="url(#clip820)" d="M1307 242.092 L1311.26 242.092 L1311.26 268.018 L1307 268.018 L1307 242.092 M1307 231.999 L1311.26 231.999 L1311.26 237.393 L1307 237.393 L1307 231.999 Z" fill="#000000" fill-rule="evenodd" fill-opacity="1" /><path clip-path="url(#clip820)" d="M1324.38 234.731 L1324.38 242.092 L1333.16 242.092 L1333.16 245.402 L1324.38 245.402 L1324.38 259.476 Q1324.38 262.647 1325.24 263.55 Q1326.12 264.453 1328.78 264.453 L1333.16 264.453 L1333.16 268.018 L1328.78 268.018 Q1323.85 268.018 1321.98 266.189 Q1320.1 264.337 1320.1 259.476 L1320.1 245.402 L1316.98 245.402 L1316.98 242.092 L1320.1 242.092 L1320.1 234.731 L1324.38 234.731 Z" fill="#000000" fill-rule="evenodd" fill-opacity="1" /><path clip-path="url(#clip820)" d="M1349.54 270.425 Q1347.74 275.055 1346.03 276.467 Q1344.31 277.879 1341.44 277.879 L1338.04 277.879 L1338.04 274.314 L1340.54 274.314 Q1342.3 274.314 1343.27 273.48 Q1344.24 272.647 1345.42 269.545 L1346.19 267.601 L1335.7 242.092 L1340.22 242.092 L1348.32 262.369 L1356.42 242.092 L1360.93 242.092 L1349.54 270.425 Z" fill="#000000" fill-rule="evenodd" fill-opacity="1" /><path clip-path="url(#clip820)" d="M1367.9 262.138 L1372.78 262.138 L1372.78 266.119 L1368.99 273.527 L1366 273.527 L1367.9 266.119 L1367.9 262.138 Z" fill="#000000" fill-rule="evenodd" fill-opacity="1" /><path clip-path="url(#clip820)" d="M1401.16 234.731 L1401.16 242.092 L1409.94 242.092 L1409.94 245.402 L1401.16 245.402 L1401.16 259.476 Q1401.16 262.647 1402.02 263.55 Q1402.9 264.453 1405.56 264.453 L1409.94 264.453 L1409.94 268.018 L1405.56 268.018 Q1400.63 268.018 1398.76 266.189 Q1396.88 264.337 1396.88 259.476 L1396.88 245.402 L1393.76 245.402 L1393.76 242.092 L1396.88 242.092 L1396.88 234.731 L1401.16 234.731 Z" fill="#000000" fill-rule="evenodd" fill-opacity="1" /><path clip-path="url(#clip820)" d="M1437.09 252.369 L1437.09 268.018 L1432.83 268.018 L1432.83 252.508 Q1432.83 248.828 1431.4 246.999 Q1429.96 245.17 1427.09 245.17 Q1423.64 245.17 1421.65 247.37 Q1419.66 249.569 1419.66 253.365 L1419.66 268.018 L1415.38 268.018 L1415.38 231.999 L1419.66 231.999 L1419.66 246.12 Q1421.19 243.782 1423.25 242.624 Q1425.33 241.467 1428.04 241.467 Q1432.51 241.467 1434.8 244.245 Q1437.09 246.999 1437.09 252.369 Z" fill="#000000" fill-rule="evenodd" fill-opacity="1" /><path clip-path="url(#clip820)" d="M1467.76 253.99 L1467.76 256.073 L1448.18 256.073 Q1448.46 260.471 1450.82 262.786 Q1453.2 265.078 1457.44 265.078 Q1459.89 265.078 1462.18 264.476 Q1464.5 263.874 1466.77 262.67 L1466.77 266.698 Q1464.47 267.67 1462.07 268.18 Q1459.66 268.689 1457.18 268.689 Q1450.98 268.689 1447.34 265.078 Q1443.73 261.467 1443.73 255.309 Q1443.73 248.944 1447.16 245.217 Q1450.61 241.467 1456.44 241.467 Q1461.67 241.467 1464.71 244.846 Q1467.76 248.203 1467.76 253.99 M1463.5 252.74 Q1463.46 249.245 1461.53 247.161 Q1459.64 245.078 1456.49 245.078 Q1452.92 245.078 1450.77 247.092 Q1448.64 249.106 1448.32 252.763 L1463.5 252.74 Z" fill="#000000" fill-rule="evenodd" fill-opacity="1" /><path clip-path="url(#clip820)" d="M1484.8 245.078 Q1481.37 245.078 1479.38 247.763 Q1477.39 250.425 1477.39 255.078 Q1477.39 259.731 1479.36 262.416 Q1481.35 265.078 1484.8 265.078 Q1488.2 265.078 1490.19 262.393 Q1492.18 259.707 1492.18 255.078 Q1492.18 250.471 1490.19 247.786 Q1488.2 245.078 1484.8 245.078 M1484.8 241.467 Q1490.35 241.467 1493.53 245.078 Q1496.7 248.689 1496.7 255.078 Q1496.7 261.444 1493.53 265.078 Q1490.35 268.689 1484.8 268.689 Q1479.22 268.689 1476.05 265.078 Q1472.9 261.444 1472.9 255.078 Q1472.9 248.689 1476.05 245.078 Q1479.22 241.467 1484.8 241.467 Z" fill="#000000" fill-rule="evenodd" fill-opacity="1" /><path clip-path="url(#clip820)" d="M1518.78 246.073 Q1518.06 245.657 1517.21 245.471 Q1516.37 245.263 1515.35 245.263 Q1511.74 245.263 1509.8 247.624 Q1507.88 249.962 1507.88 254.36 L1507.88 268.018 L1503.59 268.018 L1503.59 242.092 L1507.88 242.092 L1507.88 246.12 Q1509.22 243.758 1511.37 242.624 Q1513.52 241.467 1516.6 241.467 Q1517.04 241.467 1517.58 241.536 Q1518.11 241.583 1518.76 241.698 L1518.78 246.073 Z" fill="#000000" fill-rule="evenodd" fill-opacity="1" /><path clip-path="url(#clip820)" d="M1544.38 253.99 L1544.38 256.073 L1524.8 256.073 Q1525.08 260.471 1527.44 262.786 Q1529.82 265.078 1534.06 265.078 Q1536.51 265.078 1538.8 264.476 Q1541.12 263.874 1543.39 262.67 L1543.39 266.698 Q1541.09 267.67 1538.69 268.18 Q1536.28 268.689 1533.8 268.689 Q1527.6 268.689 1523.96 265.078 Q1520.35 261.467 1520.35 255.309 Q1520.35 248.944 1523.78 245.217 Q1527.23 241.467 1533.06 241.467 Q1538.29 241.467 1541.33 244.846 Q1544.38 248.203 1544.38 253.99 M1540.12 252.74 Q1540.08 249.245 1538.15 247.161 Q1536.26 245.078 1533.11 245.078 Q1529.54 245.078 1527.39 247.092 Q1525.26 249.106 1524.94 252.763 L1540.12 252.74 Z" fill="#000000" fill-rule="evenodd" fill-opacity="1" /><path clip-path="url(#clip820)" d="M1555.58 234.731 L1555.58 242.092 L1564.36 242.092 L1564.36 245.402 L1555.58 245.402 L1555.58 259.476 Q1555.58 262.647 1556.44 263.55 Q1557.32 264.453 1559.98 264.453 L1564.36 264.453 L1564.36 268.018 L1559.98 268.018 Q1555.05 268.018 1553.18 266.189 Q1551.3 264.337 1551.3 259.476 L1551.3 245.402 L1548.18 245.402 L1548.18 242.092 L1551.3 242.092 L1551.3 234.731 L1555.58 234.731 Z" fill="#000000" fill-rule="evenodd" fill-opacity="1" /><path clip-path="url(#clip820)" d="M1569.96 242.092 L1574.22 242.092 L1574.22 268.018 L1569.96 268.018 L1569.96 242.092 M1569.96 231.999 L1574.22 231.999 L1574.22 237.393 L1569.96 237.393 L1569.96 231.999 Z" fill="#000000" fill-rule="evenodd" fill-opacity="1" /><path clip-path="url(#clip820)" d="M1601.79 243.087 L1601.79 247.069 Q1599.98 246.073 1598.15 245.587 Q1596.35 245.078 1594.5 245.078 Q1590.35 245.078 1588.06 247.717 Q1585.77 250.332 1585.77 255.078 Q1585.77 259.823 1588.06 262.462 Q1590.35 265.078 1594.5 265.078 Q1596.35 265.078 1598.15 264.592 Q1599.98 264.082 1601.79 263.087 L1601.79 267.022 Q1600.01 267.856 1598.08 268.272 Q1596.19 268.689 1594.03 268.689 Q1588.18 268.689 1584.73 265.008 Q1581.28 261.328 1581.28 255.078 Q1581.28 248.735 1584.75 245.101 Q1588.25 241.467 1594.31 241.467 Q1596.28 241.467 1598.15 241.883 Q1600.03 242.277 1601.79 243.087 Z" fill="#000000" fill-rule="evenodd" fill-opacity="1" /><path clip-path="url(#clip820)" d="M1620.98 254.985 Q1615.82 254.985 1613.83 256.166 Q1611.83 257.346 1611.83 260.194 Q1611.83 262.462 1613.32 263.805 Q1614.82 265.124 1617.39 265.124 Q1620.93 265.124 1623.06 262.624 Q1625.21 260.101 1625.21 255.934 L1625.21 254.985 L1620.98 254.985 M1629.47 253.226 L1629.47 268.018 L1625.21 268.018 L1625.21 264.082 Q1623.76 266.443 1621.58 267.578 Q1619.4 268.689 1616.26 268.689 Q1612.27 268.689 1609.91 266.467 Q1607.58 264.221 1607.58 260.471 Q1607.58 256.096 1610.49 253.874 Q1613.43 251.652 1619.24 251.652 L1625.21 251.652 L1625.21 251.235 Q1625.21 248.295 1623.27 246.698 Q1621.35 245.078 1617.85 245.078 Q1615.63 245.078 1613.52 245.61 Q1611.42 246.143 1609.47 247.207 L1609.47 243.272 Q1611.81 242.37 1614.01 241.93 Q1616.21 241.467 1618.29 241.467 Q1623.92 241.467 1626.7 244.383 Q1629.47 247.3 1629.47 253.226 Z" fill="#000000" fill-rule="evenodd" fill-opacity="1" /><path clip-path="url(#clip820)" d="M1638.25 231.999 L1642.51 231.999 L1642.51 268.018 L1638.25 268.018 L1638.25 231.999 Z" fill="#000000" fill-rule="evenodd" fill-opacity="1" /><path clip-path="url(#clip820)" d="M1676.72 232.046 Q1673.62 237.37 1672.11 242.578 Q1670.61 247.786 1670.61 253.133 Q1670.61 258.481 1672.11 263.735 Q1673.64 268.967 1676.72 274.268 L1673.01 274.268 Q1669.54 268.828 1667.81 263.573 Q1666.09 258.319 1666.09 253.133 Q1666.09 247.971 1667.81 242.74 Q1669.52 237.508 1673.01 232.046 L1676.72 232.046 Z" fill="#000000" fill-rule="evenodd" fill-opacity="1" /><path clip-path="url(#clip820)" d="M1682.51 242.092 L1686.76 242.092 L1692.09 262.323 L1697.39 242.092 L1702.41 242.092 L1707.74 262.323 L1713.04 242.092 L1717.3 242.092 L1710.51 268.018 L1705.49 268.018 L1699.91 246.768 L1694.31 268.018 L1689.29 268.018 L1682.51 242.092 Z" fill="#000000" fill-rule="evenodd" fill-opacity="1" /><path clip-path="url(#clip820)" d="M1723.76 242.092 L1728.01 242.092 L1728.01 268.018 L1723.76 268.018 L1723.76 242.092 M1723.76 231.999 L1728.01 231.999 L1728.01 237.393 L1723.76 237.393 L1723.76 231.999 Z" fill="#000000" fill-rule="evenodd" fill-opacity="1" /><path clip-path="url(#clip820)" d="M1741.14 234.731 L1741.14 242.092 L1749.91 242.092 L1749.91 245.402 L1741.14 245.402 L1741.14 259.476 Q1741.14 262.647 1742 263.55 Q1742.88 264.453 1745.54 264.453 L1749.91 264.453 L1749.91 268.018 L1745.54 268.018 Q1740.61 268.018 1738.73 266.189 Q1736.86 264.337 1736.86 259.476 L1736.86 245.402 L1733.73 245.402 L1733.73 242.092 L1736.86 242.092 L1736.86 234.731 L1741.14 234.731 Z" fill="#000000" fill-rule="evenodd" fill-opacity="1" /><path clip-path="url(#clip820)" d="M1777.07 252.369 L1777.07 268.018 L1772.81 268.018 L1772.81 252.508 Q1772.81 248.828 1771.37 246.999 Q1769.94 245.17 1767.07 245.17 Q1763.62 245.17 1761.63 247.37 Q1759.63 249.569 1759.63 253.365 L1759.63 268.018 L1755.35 268.018 L1755.35 231.999 L1759.63 231.999 L1759.63 246.12 Q1761.16 243.782 1763.22 242.624 Q1765.31 241.467 1768.01 241.467 Q1772.48 241.467 1774.77 244.245 Q1777.07 246.999 1777.07 252.369 Z" fill="#000000" fill-rule="evenodd" fill-opacity="1" /><path clip-path="url(#clip820)" d="M1795.61 245.078 Q1792.18 245.078 1790.19 247.763 Q1788.2 250.425 1788.2 255.078 Q1788.2 259.731 1790.17 262.416 Q1792.16 265.078 1795.61 265.078 Q1799.01 265.078 1801 262.393 Q1802.99 259.707 1802.99 255.078 Q1802.99 250.471 1801 247.786 Q1799.01 245.078 1795.61 245.078 M1795.61 241.467 Q1801.16 241.467 1804.33 245.078 Q1807.5 248.689 1807.5 255.078 Q1807.5 261.444 1804.33 265.078 Q1801.16 268.689 1795.61 268.689 Q1790.03 268.689 1786.86 265.078 Q1783.71 261.444 1783.71 255.078 Q1783.71 248.689 1786.86 245.078 Q1790.03 241.467 1795.61 241.467 Z" fill="#000000" fill-rule="evenodd" fill-opacity="1" /><path clip-path="url(#clip820)" d="M1814.13 257.786 L1814.13 242.092 L1818.38 242.092 L1818.38 257.624 Q1818.38 261.305 1819.82 263.156 Q1821.25 264.985 1824.13 264.985 Q1827.57 264.985 1829.56 262.786 Q1831.58 260.587 1831.58 256.791 L1831.58 242.092 L1835.84 242.092 L1835.84 268.018 L1831.58 268.018 L1831.58 264.036 Q1830.03 266.397 1827.97 267.555 Q1825.93 268.689 1823.22 268.689 Q1818.75 268.689 1816.44 265.911 Q1814.13 263.133 1814.13 257.786 M1824.84 241.467 L1824.84 241.467 Z" fill="#000000" fill-rule="evenodd" fill-opacity="1" /><path clip-path="url(#clip820)" d="M1848.82 234.731 L1848.82 242.092 L1857.6 242.092 L1857.6 245.402 L1848.82 245.402 L1848.82 259.476 Q1848.82 262.647 1849.68 263.55 Q1850.56 264.453 1853.22 264.453 L1857.6 264.453 L1857.6 268.018 L1853.22 268.018 Q1848.29 268.018 1846.42 266.189 Q1844.54 264.337 1844.54 259.476 L1844.54 245.402 L1841.42 245.402 L1841.42 242.092 L1844.54 242.092 L1844.54 234.731 L1848.82 234.731 Z" fill="#000000" fill-rule="evenodd" fill-opacity="1" /><path clip-path="url(#clip820)" d="M1890.05 254.985 Q1884.89 254.985 1882.9 256.166 Q1880.91 257.346 1880.91 260.194 Q1880.91 262.462 1882.39 263.805 Q1883.89 265.124 1886.46 265.124 Q1890 265.124 1892.13 262.624 Q1894.29 260.101 1894.29 255.934 L1894.29 254.985 L1890.05 254.985 M1898.55 253.226 L1898.55 268.018 L1894.29 268.018 L1894.29 264.082 Q1892.83 266.443 1890.65 267.578 Q1888.48 268.689 1885.33 268.689 Q1881.35 268.689 1878.99 266.467 Q1876.65 264.221 1876.65 260.471 Q1876.65 256.096 1879.56 253.874 Q1882.5 251.652 1888.31 251.652 L1894.29 251.652 L1894.29 251.235 Q1894.29 248.295 1892.34 246.698 Q1890.42 245.078 1886.93 245.078 Q1884.7 245.078 1882.6 245.61 Q1880.49 246.143 1878.55 247.207 L1878.55 243.272 Q1880.88 242.37 1883.08 241.93 Q1885.28 241.467 1887.37 241.467 Q1892.99 241.467 1895.77 244.383 Q1898.55 247.3 1898.55 253.226 Z" fill="#000000" fill-rule="evenodd" fill-opacity="1" /><path clip-path="url(#clip820)" d="M1911.44 264.129 L1911.44 277.879 L1907.16 277.879 L1907.16 242.092 L1911.44 242.092 L1911.44 246.027 Q1912.78 243.712 1914.82 242.601 Q1916.88 241.467 1919.73 241.467 Q1924.45 241.467 1927.39 245.217 Q1930.35 248.967 1930.35 255.078 Q1930.35 261.189 1927.39 264.939 Q1924.45 268.689 1919.73 268.689 Q1916.88 268.689 1914.82 267.578 Q1912.78 266.443 1911.44 264.129 M1925.93 255.078 Q1925.93 250.379 1923.99 247.717 Q1922.06 245.032 1918.68 245.032 Q1915.31 245.032 1913.36 247.717 Q1911.44 250.379 1911.44 255.078 Q1911.44 259.777 1913.36 262.462 Q1915.31 265.124 1918.68 265.124 Q1922.06 265.124 1923.99 262.462 Q1925.93 259.777 1925.93 255.078 Z" fill="#000000" fill-rule="evenodd" fill-opacity="1" /><path clip-path="url(#clip820)" d="M1941.53 264.129 L1941.53 277.879 L1937.25 277.879 L1937.25 242.092 L1941.53 242.092 L1941.53 246.027 Q1942.87 243.712 1944.91 242.601 Q1946.97 241.467 1949.82 241.467 Q1954.54 241.467 1957.48 245.217 Q1960.44 248.967 1960.44 255.078 Q1960.44 261.189 1957.48 264.939 Q1954.54 268.689 1949.82 268.689 Q1946.97 268.689 1944.91 267.578 Q1942.87 266.443 1941.53 264.129 M1956.02 255.078 Q1956.02 250.379 1954.08 247.717 Q1952.16 245.032 1948.78 245.032 Q1945.4 245.032 1943.45 247.717 Q1941.53 250.379 1941.53 255.078 Q1941.53 259.777 1943.45 262.462 Q1945.4 265.124 1948.78 265.124 Q1952.16 265.124 1954.08 262.462 Q1956.02 259.777 1956.02 255.078 Z" fill="#000000" fill-rule="evenodd" fill-opacity="1" /><path clip-path="url(#clip820)" d="M1982.53 246.073 Q1981.81 245.657 1980.95 245.471 Q1980.12 245.263 1979.1 245.263 Q1975.49 245.263 1973.55 247.624 Q1971.62 249.962 1971.62 254.36 L1971.62 268.018 L1967.34 268.018 L1967.34 242.092 L1971.62 242.092 L1971.62 246.12 Q1972.97 243.758 1975.12 242.624 Q1977.27 241.467 1980.35 241.467 Q1980.79 241.467 1981.32 241.536 Q1981.86 241.583 1982.5 241.698 L1982.53 246.073 Z" fill="#000000" fill-rule="evenodd" fill-opacity="1" /><path clip-path="url(#clip820)" d="M1996 245.078 Q1992.57 245.078 1990.58 247.763 Q1988.59 250.425 1988.59 255.078 Q1988.59 259.731 1990.56 262.416 Q1992.55 265.078 1996 265.078 Q1999.4 265.078 2001.39 262.393 Q2003.38 259.707 2003.38 255.078 Q2003.38 250.471 2001.39 247.786 Q1999.4 245.078 1996 245.078 M1996 241.467 Q2001.55 241.467 2004.73 245.078 Q2007.9 248.689 2007.9 255.078 Q2007.9 261.444 2004.73 265.078 Q2001.55 268.689 1996 268.689 Q1990.42 268.689 1987.25 265.078 Q1984.1 261.444 1984.1 255.078 Q1984.1 248.689 1987.25 245.078 Q1990.42 241.467 1996 241.467 Z" fill="#000000" fill-rule="evenodd" fill-opacity="1" /><path clip-path="url(#clip820)" d="M2035.05 242.092 L2025.67 254.707 L2035.54 268.018 L2030.51 268.018 L2022.97 257.832 L2015.42 268.018 L2010.4 268.018 L2020.47 254.453 L2011.25 242.092 L2016.28 242.092 L2023.15 251.328 L2030.03 242.092 L2035.05 242.092 Z" fill="#000000" fill-rule="evenodd" fill-opacity="1" /><path clip-path="url(#clip820)" d="M2041.55 242.092 L2045.81 242.092 L2045.81 268.018 L2041.55 268.018 L2041.55 242.092 M2041.55 231.999 L2045.81 231.999 L2045.81 237.393 L2041.55 237.393 L2041.55 231.999 Z" fill="#000000" fill-rule="evenodd" fill-opacity="1" /><path clip-path="url(#clip820)" d="M2074.91 247.069 Q2076.51 244.198 2078.73 242.833 Q2080.95 241.467 2083.96 241.467 Q2088.01 241.467 2090.21 244.314 Q2092.41 247.138 2092.41 252.369 L2092.41 268.018 L2088.13 268.018 L2088.13 252.508 Q2088.13 248.782 2086.81 246.976 Q2085.49 245.17 2082.78 245.17 Q2079.47 245.17 2077.55 247.37 Q2075.63 249.569 2075.63 253.365 L2075.63 268.018 L2071.35 268.018 L2071.35 252.508 Q2071.35 248.758 2070.03 246.976 Q2068.71 245.17 2065.95 245.17 Q2062.69 245.17 2060.77 247.393 Q2058.85 249.592 2058.85 253.365 L2058.85 268.018 L2054.56 268.018 L2054.56 242.092 L2058.85 242.092 L2058.85 246.12 Q2060.3 243.735 2062.34 242.601 Q2064.38 241.467 2067.18 241.467 Q2070 241.467 2071.97 242.902 Q2073.96 244.337 2074.91 247.069 Z" fill="#000000" fill-rule="evenodd" fill-opacity="1" /><path clip-path="url(#clip820)" d="M2112.69 254.985 Q2107.53 254.985 2105.54 256.166 Q2103.54 257.346 2103.54 260.194 Q2103.54 262.462 2105.03 263.805 Q2106.53 265.124 2109.1 265.124 Q2112.64 265.124 2114.77 262.624 Q2116.92 260.101 2116.92 255.934 L2116.92 254.985 L2112.69 254.985 M2121.18 253.226 L2121.18 268.018 L2116.92 268.018 L2116.92 264.082 Q2115.47 266.443 2113.29 267.578 Q2111.11 268.689 2107.97 268.689 Q2103.98 268.689 2101.62 266.467 Q2099.29 264.221 2099.29 260.471 Q2099.29 256.096 2102.2 253.874 Q2105.14 251.652 2110.95 251.652 L2116.92 251.652 L2116.92 251.235 Q2116.92 248.295 2114.98 246.698 Q2113.06 245.078 2109.56 245.078 Q2107.34 245.078 2105.23 245.61 Q2103.13 246.143 2101.18 247.207 L2101.18 243.272 Q2103.52 242.37 2105.72 241.93 Q2107.92 241.467 2110 241.467 Q2115.63 241.467 2118.41 244.383 Q2121.18 247.3 2121.18 253.226 Z" fill="#000000" fill-rule="evenodd" fill-opacity="1" /><path clip-path="url(#clip820)" d="M2134.17 234.731 L2134.17 242.092 L2142.94 242.092 L2142.94 245.402 L2134.17 245.402 L2134.17 259.476 Q2134.17 262.647 2135.03 263.55 Q2135.91 264.453 2138.57 264.453 L2142.94 264.453 L2142.94 268.018 L2138.57 268.018 Q2133.64 268.018 2131.76 266.189 Q2129.89 264.337 2129.89 259.476 L2129.89 245.402 L2126.76 245.402 L2126.76 242.092 L2129.89 242.092 L2129.89 234.731 L2134.17 234.731 Z" fill="#000000" fill-rule="evenodd" fill-opacity="1" /><path clip-path="url(#clip820)" d="M2148.54 242.092 L2152.8 242.092 L2152.8 268.018 L2148.54 268.018 L2148.54 242.092 M2148.54 231.999 L2152.8 231.999 L2152.8 237.393 L2148.54 237.393 L2148.54 231.999 Z" fill="#000000" fill-rule="evenodd" fill-opacity="1" /><path clip-path="url(#clip820)" d="M2171.76 245.078 Q2168.34 245.078 2166.35 247.763 Q2164.35 250.425 2164.35 255.078 Q2164.35 259.731 2166.32 262.416 Q2168.31 265.078 2171.76 265.078 Q2175.16 265.078 2177.16 262.393 Q2179.15 259.707 2179.15 255.078 Q2179.15 250.471 2177.16 247.786 Q2175.16 245.078 2171.76 245.078 M2171.76 241.467 Q2177.32 241.467 2180.49 245.078 Q2183.66 248.689 2183.66 255.078 Q2183.66 261.444 2180.49 265.078 Q2177.32 268.689 2171.76 268.689 Q2166.18 268.689 2163.01 265.078 Q2159.86 261.444 2159.86 255.078 Q2159.86 248.689 2163.01 245.078 Q2166.18 241.467 2171.76 241.467 Z" fill="#000000" fill-rule="evenodd" fill-opacity="1" /><path clip-path="url(#clip820)" d="M2212.27 252.369 L2212.27 268.018 L2208.01 268.018 L2208.01 252.508 Q2208.01 248.828 2206.58 246.999 Q2205.14 245.17 2202.27 245.17 Q2198.82 245.17 2196.83 247.37 Q2194.84 249.569 2194.84 253.365 L2194.84 268.018 L2190.56 268.018 L2190.56 242.092 L2194.84 242.092 L2194.84 246.12 Q2196.37 243.782 2198.43 242.624 Q2200.51 241.467 2203.22 241.467 Q2207.69 241.467 2209.98 244.245 Q2212.27 246.999 2212.27 252.369 Z" fill="#000000" fill-rule="evenodd" fill-opacity="1" /><path clip-path="url(#clip820)" d="M2220.1 232.046 L2223.8 232.046 Q2227.27 237.508 2228.98 242.74 Q2230.72 247.971 2230.72 253.133 Q2230.72 258.319 2228.98 263.573 Q2227.27 268.828 2223.8 274.268 L2220.1 274.268 Q2223.17 268.967 2224.68 263.735 Q2226.21 258.481 2226.21 253.133 Q2226.21 247.786 2224.68 242.578 Q2223.17 237.37 2220.1 232.046 Z" fill="#000000" fill-rule="evenodd" fill-opacity="1" /></svg>
